<svg width="600" height="531" viewBox="0 0 600 531" fill="none" xmlns="http://www.w3.org/2000/svg">
<g filter="url(#filter0_d)">
<path d="M314.631 235.294C314.272 235.294 313.913 235.155 313.643 234.878C313.374 234.6 313.24 234.254 313.217 233.86L311.601 2.56689C311.601 1.78065 312.207 1.11003 312.993 1.11003L461.902 4.57764e-05C462.261 4.57764e-05 462.62 0.138794 462.889 0.416291C463.158 0.693788 463.293 1.04066 463.315 1.43378L464.953 232.704C464.953 233.49 464.347 234.161 463.562 234.161L314.631 235.294C314.653 235.294 314.653 235.294 314.631 235.294ZM314.406 4.00062L316.022 232.38L462.126 231.27L460.51 2.89064L314.406 4.00062Z" fill="#C2AC96"/>
<path d="M313.217 35.2422C312.454 35.2422 311.826 34.5947 311.826 33.8085C311.826 33.0222 312.454 32.3516 313.217 32.3516L461.116 31.2416C461.879 31.2416 462.507 31.8891 462.507 32.6754C462.507 33.4616 461.879 34.1322 461.116 34.1322L313.217 35.2422C313.239 35.2422 313.217 35.2422 313.217 35.2422Z" fill="#C2AC96"/>
<path d="M387.043 234.138C386.28 234.138 385.652 233.49 385.652 232.704L384.238 33.2766C384.238 32.4903 384.844 31.8197 385.629 31.8197C386.392 31.8197 387.021 32.4672 387.021 33.2534L388.434 232.681C388.457 233.467 387.828 234.138 387.043 234.138Z" fill="#C2AC96"/>
<path d="M489.794 151.259C489.031 151.259 488.403 150.611 488.403 149.825L488.268 130.932C488.268 130.146 488.897 129.475 489.66 129.475C490.423 129.475 491.051 130.123 491.051 130.909L491.185 149.802C491.208 150.611 490.58 151.259 489.794 151.259C489.817 151.259 489.817 151.259 489.794 151.259Z" fill="#C2AC96"/>
<path d="M537.434 172.973C536.671 172.973 536.042 172.325 536.042 171.539L535.908 152.646C535.908 151.86 536.536 151.189 537.299 151.189C538.062 151.189 538.69 151.837 538.69 152.623L538.825 171.516C538.847 172.325 538.219 172.973 537.434 172.973C537.456 172.973 537.434 172.973 537.434 172.973Z" fill="#C2AC96"/>
<path d="M473.166 152.97C472.403 152.97 471.775 152.323 471.775 151.537C471.775 150.75 472.403 150.08 473.166 150.08L565.662 149.386C566.425 149.386 567.053 150.033 567.053 150.82C567.053 151.606 566.425 152.276 565.662 152.276L473.166 152.97Z" fill="#C2AC96"/>
<path d="M498.388 173.274C497.626 173.274 496.997 172.626 496.997 171.84C496.997 171.054 497.626 170.383 498.388 170.383L564.585 169.874C565.348 169.874 565.976 170.522 565.976 171.308C565.976 172.094 565.348 172.765 564.585 172.765L498.388 173.274Z" fill="#C2AC96"/>
<path d="M103.362 283.463C102.599 283.463 101.971 282.815 101.971 282.029L101.836 263.136C101.836 262.35 102.465 261.679 103.228 261.679C103.991 261.679 104.619 262.327 104.619 263.113L104.754 282.006C104.776 282.815 104.148 283.463 103.362 283.463Z" fill="#C2AC96"/>
<path d="M56.0372 305.893C55.2742 305.893 54.6459 305.246 54.6459 304.46L54.5113 285.567C54.5113 284.781 55.1172 284.11 55.9025 284.11C56.6655 284.11 57.2938 284.758 57.2938 285.544L57.4284 304.437C57.4509 305.246 56.8226 305.893 56.0372 305.893Z" fill="#C2AC96"/>
<path d="M27.5391 285.613C26.7762 285.613 26.1479 284.966 26.1479 284.18C26.1479 283.393 26.7538 282.723 27.5391 282.723L120.035 282.029C120.798 282.029 121.426 282.677 121.426 283.463C121.426 284.249 120.82 284.92 120.035 284.92L27.5391 285.613Z" fill="#C2AC96"/>
<path d="M28.908 306.102C28.145 306.102 27.5167 305.454 27.5167 304.668C27.5167 303.882 28.1226 303.211 28.908 303.211L95.1047 302.703C95.8676 302.703 96.4959 303.35 96.4959 304.136C96.4959 304.922 95.8676 305.593 95.1047 305.593L28.908 306.102Z" fill="#C2AC96"/>
<path d="M595.193 504.559C595.26 513.115 462.956 521.047 299.709 522.272C136.461 523.498 4.06747 517.555 4.00015 508.999C3.93283 500.442 136.236 492.511 299.484 491.285C462.732 490.059 595.125 496.002 595.193 504.559Z" fill="#C2AC96"/>
<path d="M369.405 448.874L369.809 506.247L392.922 506.085L405.78 457.199L410.537 439.093L369.405 448.874Z" fill="#731F07"/>
<g opacity="0.5">
<g opacity="0.5">
<g opacity="0.5">
<g opacity="0.5">
<g opacity="0.5">
<path opacity="0.5" d="M369.405 448.874L369.517 463.512C379.997 462.24 394.919 459.396 405.78 457.199L410.537 439.093L369.405 448.874Z" fill="#731F07"/>
</g>
</g>
</g>
</g>
</g>
<path d="M239.234 449.845L239.637 507.241L216.547 507.403L202.994 458.725L197.967 440.688L239.234 449.845Z" fill="#731F07"/>
<g opacity="0.5">
<g opacity="0.5">
<g opacity="0.5">
<g opacity="0.5">
<g opacity="0.5">
<path opacity="0.5" d="M239.234 449.846L239.346 464.484C228.866 463.35 213.899 460.737 202.994 458.725L197.967 440.688L239.234 449.846Z" fill="#731F07"/>
</g>
</g>
</g>
</g>
</g>
<path d="M149.925 127.51C152.124 149.64 170.726 230.091 180.083 269.75C181.026 273.704 181.856 277.242 182.574 280.295C184.347 287.718 185.402 292.158 185.402 292.158L379.728 286.492C379.728 286.492 380.244 283.925 381.164 279.37C387.874 245.793 415.542 104.2 407.867 90.4641C407.329 89.4928 406.543 88.5447 405.511 87.6197C404.793 86.9491 403.94 86.3016 402.998 85.6541C402.055 85.0066 400.978 84.3823 399.812 83.7579C385.697 76.2193 356.324 70.0681 322.978 66.5531C283.664 62.3907 238.853 61.9282 207.101 67.1775C206.203 67.3162 205.305 67.4781 204.408 67.64C202.097 68.0562 199.875 68.4725 197.743 68.9118C156.118 77.3524 148.129 89.1228 147.995 105.68V105.703C147.972 112.201 149.117 119.439 149.925 127.51Z" fill="#A5410F"/>
<path d="M378.225 243.596C378.629 243.596 378.988 243.295 379.055 242.879C379.123 242.532 385.024 207.591 389.759 172.094C392.542 151.236 394.359 134.239 395.189 121.636C396.603 99.9683 394.785 95.6671 393.304 94.3027C384.71 86.4634 340.504 80.7516 314.923 78.046C302.671 76.7511 290.195 76.4042 277.831 77.0286C248.278 78.5085 197.43 82.2316 188.858 90.4871C187.422 91.8746 185.716 96.2452 187.736 117.867C188.903 130.47 191.214 147.374 194.557 168.163C200.257 203.521 207.146 238.277 207.213 238.624C207.303 239.087 207.752 239.387 208.201 239.295C208.649 239.202 208.941 238.74 208.851 238.277C208.784 237.93 201.918 203.22 196.218 167.886C186.255 106.073 188.05 93.6783 190.002 91.7821C195.971 86.0241 227.992 81.2835 277.898 78.786C290.172 78.1617 302.559 78.5085 314.721 79.8035C340.1 82.486 383.925 88.1284 392.16 95.6439C394.18 97.4708 396.311 109.819 388.076 171.886C383.364 207.359 377.462 242.278 377.395 242.625C377.305 243.087 377.619 243.55 378.09 243.642C378.113 243.596 378.18 243.596 378.225 243.596Z" fill="#731F07"/>
<path d="M148.018 105.68C148.153 111.762 149.163 118.445 149.903 125.822C152.102 147.952 170.705 228.403 180.062 268.062L211.814 267.831C211.814 267.831 175.866 136.459 173.577 104.108C172.074 82.9949 187.13 73.19 197.767 68.9119C156.141 77.3524 148.153 89.1229 148.018 105.68Z" fill="#731F07"/>
<path d="M381.097 281.914C381.097 281.914 413.769 278.399 416.529 290.562C418.683 300.066 416.484 385.258 415.429 422.281C415.138 431.993 422.453 440.133 431.878 440.619C433.964 440.734 436.141 440.804 438.408 440.873C449.246 441.197 461.52 440.942 469.935 438.907C488.246 434.491 488.65 407.666 494.843 363.128C501.036 318.589 506.399 239.295 466.053 224.356C464.662 223.847 463.271 223.385 461.879 222.945C423.036 211.152 386.258 235.317 386.258 235.317C377.484 260.87 381.097 281.914 381.097 281.914Z" fill="#731F07"/>
<path d="M438.385 440.873C449.223 441.196 461.498 440.942 469.913 438.907C488.223 434.49 488.627 407.666 494.82 363.127C501.014 318.589 506.377 239.295 466.031 224.356C464.639 223.847 463.248 223.385 461.857 222.945C455.013 224.68 448.752 229.42 445.431 239.734C436.41 267.761 451.737 364.7 438.385 440.873Z" fill="#A5410F"/>
<path d="M459.748 434.051C468.095 433.982 474.58 430.374 478.507 423.599C484.633 412.985 492.958 322.174 493.317 318.312C493.362 317.849 493.025 317.41 492.554 317.364C492.105 317.318 491.679 317.664 491.634 318.15C491.544 319.098 482.995 412.43 477.048 422.72C468.028 438.329 447.832 430.189 447.63 430.12C447.204 429.935 446.71 430.166 446.553 430.606C446.374 431.045 446.598 431.554 447.024 431.716C447.249 431.808 452.477 433.936 458.985 434.051C459.254 434.051 459.501 434.051 459.748 434.051Z" fill="#731F07"/>
<path d="M455.506 255.39C455.506 255.39 456.045 240.15 467.22 241.283C478.372 242.417 479.09 267.53 469.149 270.86C454.586 275.716 455.506 255.39 455.506 255.39Z" fill="#731F07"/>
<path d="M481.155 250.649C481.222 250.649 481.267 250.649 481.334 250.626C481.783 250.51 482.075 250.048 481.963 249.585C481.828 249.03 478.754 235.687 467.938 233.121C463.562 232.08 459.68 232.912 456.404 235.618C451.669 239.526 449.515 246.533 449.538 250.025C449.538 250.51 449.919 250.88 450.368 250.88C450.839 250.88 451.198 250.487 451.198 250.025C451.176 247.296 452.993 240.636 457.436 236.982C460.286 234.624 463.697 233.907 467.534 234.832C477.34 237.167 480.28 249.886 480.302 250.002C480.414 250.395 480.751 250.649 481.155 250.649Z" fill="#731F07"/>
<path d="M153.649 277.936C155.803 286.978 157.105 292.366 157.105 292.366L393.461 285.475C393.461 285.475 394.089 282.353 395.188 276.826C353.249 269.796 209.501 273.358 153.649 277.936Z" fill="#731F07"/>
<path d="M155.848 323.932C155.938 328.533 156.073 333.39 156.252 338.431C157.89 383.825 163.702 443.648 182.843 448.736C214.011 457.061 407.081 459.951 417.022 440.873C419.984 435.185 421.802 425.611 422.946 413.91C423.171 411.621 423.372 409.239 423.53 406.811C425.033 385.651 424.876 359.335 425.392 336.419C425.527 330.268 425.729 324.348 426.02 318.844C428.13 278.422 396.221 278.098 396.221 278.098C351.095 277.358 284.853 280.018 233.309 282.654C206.449 284.018 183.583 285.383 169.806 286.238C160.942 286.793 155.848 287.117 155.848 287.117C155.848 287.117 155.422 302.564 155.848 323.932Z" fill="#A5410F"/>
<path d="M307.697 415.366C311.579 415.343 315.595 415.274 319.747 415.158C382.039 413.378 417.785 398.67 418.144 398.509C418.66 398.277 418.93 397.676 418.705 397.121C418.481 396.589 417.897 396.312 417.359 396.543C417 396.682 381.568 411.273 319.679 413.031C257.724 414.788 223.616 405.955 223.279 405.885C222.718 405.747 222.18 406.07 222.022 406.648C221.888 407.203 222.202 407.782 222.763 407.943C223.077 408.013 253.056 415.783 307.697 415.366Z" fill="#731F07"/>
<path d="M155.849 323.932C155.939 328.533 156.074 333.39 156.253 338.431C157.891 383.825 163.703 443.648 182.844 448.736C214.013 457.061 407.082 459.951 417.023 440.873C419.985 435.185 421.803 425.611 422.947 413.91C423.172 411.621 423.374 409.239 423.531 406.811C414.42 413.17 386.999 421.634 368.127 423.761C289.454 432.664 228.105 421.795 228.105 421.795C238.135 377.789 234.881 307.675 233.288 282.608C206.428 283.972 183.562 285.336 169.784 286.192L155.849 323.932Z" fill="#731F07"/>
<path d="M387.267 288.157C384.979 290.308 382.42 292.343 379.571 294.262C379.481 294.332 379.391 294.378 379.301 294.447C377.304 295.788 375.195 297.037 372.973 298.24C372.166 298.679 371.358 299.095 370.55 299.488C364.065 302.726 356.727 305.408 348.851 307.351C348.133 307.536 347.415 307.698 346.674 307.86C344.587 308.345 342.456 308.761 340.301 309.131C339.583 309.27 338.843 309.386 338.125 309.501C329.8 310.796 321.071 311.282 312.274 310.796C311.242 310.727 310.21 310.681 309.178 310.588C306.418 310.38 303.658 310.056 300.92 309.617C300.853 309.617 300.785 309.594 300.718 309.594C299.888 309.455 299.057 309.339 298.227 309.178C293.762 308.391 289.341 307.305 284.988 305.94C281.196 304.761 277.448 303.35 273.791 301.685C273.162 301.408 272.556 301.107 271.928 300.83C271.165 300.46 270.38 300.09 269.639 299.697C269.572 299.673 269.505 299.627 269.415 299.581C265.017 286.747 260.484 241.098 259.272 227.432C259.025 224.703 258.846 221.997 258.689 219.269C258.666 218.806 258.644 218.321 258.621 217.858C258.577 217.141 258.554 216.448 258.532 215.731C258.33 210.759 258.285 205.764 258.33 200.7C258.33 199.89 258.352 199.058 258.375 198.248C258.375 197.855 258.375 197.439 258.397 197.046C258.397 197 258.397 196.93 258.397 196.884C258.419 196.306 258.419 195.728 258.442 195.127C258.577 189.9 258.801 184.605 259.093 179.217C259.115 178.708 259.138 178.222 259.182 177.714C259.205 177.459 259.205 177.205 259.227 176.95C259.407 173.806 259.609 170.614 259.833 167.4C259.856 166.914 259.9 166.406 259.945 165.897C259.968 165.712 259.968 165.527 259.99 165.342C260.529 157.618 261.135 149.663 261.718 141.385C262.032 136.852 262.593 132.644 263.334 128.782C263.423 128.296 263.513 127.834 263.625 127.371C265.151 120.226 267.395 114.329 270.402 109.796C270.649 109.403 270.918 109.01 271.188 108.64C272.175 107.276 273.23 106.073 274.352 105.009C275.451 103.969 276.618 103.044 277.875 102.258C280.208 100.801 282.766 99.8527 285.571 99.4133C288.219 99.0202 290.62 98.4652 292.819 97.8408C293.223 97.7252 293.627 97.6096 294.009 97.494C295.243 97.124 296.41 96.7077 297.509 96.2915C298.07 96.0602 298.631 95.8521 299.147 95.6209C299.574 95.4359 300 95.2509 300.404 95.0659C300.583 94.9734 300.785 94.904 300.965 94.8115C301.122 94.7421 301.301 94.6496 301.459 94.5803C301.75 94.4415 302.019 94.3028 302.289 94.164C306.799 91.8515 309.357 89.7703 309.357 89.7703L340.369 90.0941C340.616 90.464 340.862 90.8109 341.087 91.1578C341.109 91.1809 341.132 91.204 341.132 91.2272C342.343 92.869 343.69 94.2565 345.126 95.4359C345.485 95.7365 345.866 96.014 346.248 96.2915C346.943 96.8002 347.662 97.2627 348.402 97.7021C348.918 98.0027 349.434 98.2802 349.928 98.5346C350.332 98.7427 350.736 98.9277 351.14 99.1127C351.252 99.1589 351.364 99.2283 351.476 99.2746C351.79 99.4133 352.082 99.5521 352.396 99.6677C352.553 99.7371 352.733 99.8064 352.89 99.8758C353.743 100.223 354.595 100.523 355.448 100.824C355.471 100.824 355.471 100.824 355.493 100.824C362.27 103.136 369.181 104.293 373.489 108.779C373.938 109.241 374.342 109.75 374.746 110.282C375.374 111.161 375.935 112.155 376.384 113.265C376.833 114.375 377.192 115.624 377.439 117.011C377.596 117.797 377.663 118.63 377.686 119.555C377.843 126.585 374.858 138.17 373.467 157.248C373.422 157.803 373.377 158.335 373.355 158.913C373.153 161.989 372.996 165.226 372.884 168.695C372.861 169.204 372.861 169.736 372.839 170.244C372.794 172.094 372.771 174.014 372.771 175.979C372.771 176.997 372.771 178.014 372.771 179.055C372.794 181.09 372.839 183.171 372.884 185.322C372.906 185.969 372.928 186.617 372.951 187.264C372.996 188.582 373.041 189.923 373.13 191.288C373.175 192.005 373.22 192.745 373.243 193.462C373.265 193.97 373.31 194.479 373.332 194.988C373.332 195.15 373.355 195.312 373.355 195.45C373.512 197.948 373.691 200.538 373.938 203.174C373.938 203.313 373.961 203.451 373.983 203.59C374.006 203.937 374.05 204.307 374.073 204.654C374.252 206.758 374.477 208.932 374.724 211.129C375.015 213.765 375.307 216.471 375.666 219.246C377.08 230.299 380.289 252.221 383.722 270.652C384.26 273.566 384.799 276.364 385.338 279.023C385.405 279.3 385.45 279.578 385.517 279.855C386.056 282.862 386.661 285.66 387.267 288.157Z" fill="white"/>
<path d="M394.134 166.058C386.616 166.058 379.391 163.399 373.287 158.936C373.265 158.913 373.22 158.89 373.198 158.867C372.053 158.034 370.976 157.132 369.944 156.207C360.093 147.327 354.842 134.401 352.665 121.197C351.611 114.768 350.579 106.697 351.431 99.2743C351.745 99.413 352.037 99.5518 352.351 99.6674C352.508 99.7368 352.688 99.8062 352.845 99.8755C352.71 101.055 352.665 102.234 352.643 103.414C352.374 117.705 355.089 133.175 362.629 145.339C364.671 148.646 367.184 151.721 370.011 154.381C371.088 155.398 372.233 156.369 373.4 157.248C379.391 161.804 386.527 164.625 394.134 164.625C395.009 164.648 395.009 166.058 394.134 166.058Z" fill="#D7C4AC"/>
<path d="M346.181 96.3145C343.219 101.541 339.83 106.489 335.926 111.022C324.257 124.619 307.787 134.285 289.992 135.118C289.61 135.141 289.207 135.164 288.825 135.164C279.917 135.395 271.008 133.175 263.244 128.805C258.98 126.423 255.098 123.37 251.733 119.74C252.047 119.416 252.383 119.092 252.697 118.769C255.839 122.191 259.519 125.105 263.513 127.394C265.376 128.458 267.306 129.406 269.303 130.215C276.079 132.967 283.17 134.008 290.239 133.615C300.224 133.083 310.12 129.683 318.737 124.203C329.845 117.173 338.551 106.952 345.059 95.4126C345.44 95.7595 345.799 96.037 346.181 96.3145Z" fill="#D7C4AC"/>
<path d="M328.027 120.919C321.452 120.85 315.438 116.572 310.479 108.409C306.238 101.425 304.263 94.1408 304.196 93.8402C304.017 93.1927 304.398 92.5452 305.004 92.3602C305.632 92.1752 306.261 92.5683 306.44 93.1927C306.507 93.4702 314.204 121.451 330.832 118.26C335.185 117.427 338.394 115.346 340.414 112.063C344.812 104.894 342.186 94.3027 342.164 94.2102C342.007 93.5627 342.366 92.9152 342.994 92.7533C343.622 92.5915 344.251 92.9615 344.408 93.609C344.52 94.0946 347.303 105.31 342.366 113.358C339.987 117.219 336.262 119.671 331.258 120.619C330.159 120.85 329.082 120.942 328.027 120.919Z" fill="#D5963D"/>
<path d="M385.607 174.985C384.934 175.193 384.283 175.401 383.61 175.586C382.758 175.193 381.927 174.777 381.075 174.36C378.314 173.019 375.554 171.655 372.794 170.267C371.605 169.666 370.438 169.088 369.249 168.487C348.717 158.196 327.646 147.952 304.399 148.23C297.218 148.322 290.217 149.525 283.597 151.93C278.234 153.872 273.118 156.601 268.361 160.116C265.331 162.359 262.482 164.833 259.766 167.469C256.984 170.129 254.358 172.973 251.823 175.887C251.329 175.748 250.858 175.586 250.387 175.424C253.416 171.932 256.558 168.556 259.923 165.411C263.379 162.174 267.059 159.168 271.053 156.554C275.407 153.71 279.962 151.56 284.629 150.033C304.735 143.443 327.107 148.137 346.607 156.277C354.304 159.491 361.844 163.214 369.361 166.961C370.528 167.539 371.672 168.117 372.839 168.695C377.058 170.846 381.321 172.95 385.607 174.985Z" fill="#D7C4AC"/>
<path d="M373.287 195.011C370.011 194.317 366.757 193.6 363.481 192.883C351.813 190.363 340.144 187.75 328.453 185.368C317.099 183.055 305.497 181.228 293.874 182.015C281.106 182.87 267.575 187.773 258.352 197.069C258.352 197.023 258.352 196.953 258.352 196.907C258.374 196.329 258.374 195.751 258.397 195.149C260.82 192.837 263.491 190.802 266.34 189.021C285.594 177.135 308.639 179.864 329.665 184.188C344.206 187.171 358.702 190.316 373.198 193.484C373.22 193.993 373.242 194.502 373.287 195.011Z" fill="#D7C4AC"/>
<path d="M301.683 229.328C299.82 239.064 295.647 248.73 291.45 257.61C287.187 266.628 281.846 275.115 274.778 282.076C274.15 282.7 273.162 281.706 273.813 281.081C281.083 273.936 286.469 265.148 290.777 255.852C294.502 247.805 298.115 239.202 300.067 230.484C302.02 221.836 301.346 211.753 293.268 206.643C286.536 202.411 277.74 202.943 270.941 206.666C266.004 209.372 262.01 213.349 258.621 217.858C258.577 217.141 258.554 216.448 258.532 215.731C262.593 210.62 267.485 206.25 273.544 203.891C280.567 201.139 289.319 201.694 295.422 206.458C302.356 211.892 303.276 221.096 301.683 229.328Z" fill="#D7C4AC"/>
<path d="M351.297 285.614C340.997 278.838 331.774 270.374 324.145 260.523C313.149 246.348 298.025 220.402 318.243 207.036C326.725 201.416 337.519 200.214 347.347 200.075C356.301 199.936 365.209 201.07 373.871 203.22C373.871 203.359 373.893 203.498 373.916 203.636C373.938 203.983 373.983 204.353 374.005 204.7C364.469 202.295 354.64 201.139 344.812 201.555C335.454 201.948 325.11 203.382 317.391 209.348C308.527 216.216 308.213 227.386 311.983 237.352C315.73 247.227 322.148 256.361 328.947 264.223C335.679 272.016 343.443 278.792 351.992 284.411C352.733 284.874 352.06 286.099 351.297 285.614Z" fill="#D7C4AC"/>
<path d="M250.184 153.664C245.427 157.711 238.987 158.127 233.265 156.208C231.29 155.537 229.428 154.635 227.677 153.571C227.924 153.132 228.171 152.693 228.396 152.253C234.656 156.185 241.68 158.034 248.299 153.363C253.797 149.502 254.605 142.657 251.598 136.806C249.825 133.384 247.065 130.771 244.036 128.504C244.328 128.134 244.619 127.788 244.889 127.441C248.457 130.146 251.688 133.314 253.483 137.592C255.884 143.281 254.919 149.64 250.184 153.664Z" fill="#D7C4AC"/>
<path d="M411.704 162.22C411.278 162.521 410.806 162.821 410.29 163.168C403.446 160.439 397.275 155.861 392.698 149.825C385.899 140.853 383.049 129.175 384.462 117.982C384.866 118.375 385.293 118.792 385.697 119.208C384.619 129.707 387.402 140.552 393.752 148.946C398.397 155.051 404.703 159.607 411.704 162.22Z" fill="#D7C4AC"/>
<path d="M292.393 114.028C291.159 114.653 289.88 115.092 288.601 115.37C283.686 116.456 278.458 115.3 274.082 112.618C272.736 111.785 271.479 110.837 270.335 109.796C269.348 108.895 268.405 107.9 267.552 106.86C267.956 106.628 268.36 106.374 268.742 106.166C269.482 107.045 270.268 107.877 271.12 108.663C272.063 109.519 273.05 110.305 274.127 110.999C278.256 113.705 283.305 115.046 288.062 114.075C289.296 113.82 290.53 113.404 291.72 112.826C297.666 109.866 300.539 103.622 299.372 96.9854C299.304 96.546 299.192 96.1066 299.102 95.6904C299.529 95.5054 299.955 95.3204 300.359 95.1354C300.628 96.1991 300.83 97.286 300.942 98.4191C301.526 105.056 298.227 111.115 292.393 114.028Z" fill="#D7C4AC"/>
<path d="M282.698 356.745C282.698 356.745 280.387 357.762 276.64 359.497C275.562 359.982 274.396 360.537 273.117 361.139C271.411 361.925 269.571 362.804 267.574 363.775C266.452 364.307 265.263 364.885 264.073 365.463C249.129 372.747 229.494 383.153 222.269 390.553C221.752 391.085 221.281 391.594 220.81 392.103C209.927 403.896 208.962 412.129 206.247 411.134C203.419 410.094 201.445 403.573 204.541 398.277C206.695 394.623 207.705 389.767 210.42 384.125C211.161 382.598 212.014 381.026 213.068 379.407C217.691 372.239 225.792 364.052 230.055 358.225C230.324 357.855 230.594 357.485 230.818 357.115C234.251 352.028 234.117 343.171 241.454 338.8C245.045 336.673 249.757 336.095 254.469 336.303C255.3 336.326 256.152 336.395 256.982 336.465C258.217 336.58 259.451 336.742 260.64 336.927C262.278 337.181 263.849 337.505 265.285 337.829C266.676 338.153 267.933 338.476 269.033 338.777C271.68 339.517 273.341 340.118 273.341 340.118L282.698 356.745Z" fill="white"/>
<path d="M254.47 336.303C251.172 343.656 243.004 358.132 230.034 358.225C230.303 357.855 230.572 357.485 230.797 357.115C234.23 352.027 234.095 343.171 241.433 338.8C245.023 336.673 249.758 336.095 254.47 336.303Z" fill="#425045"/>
<path d="M220.789 392.103C209.906 403.896 208.941 412.129 206.226 411.134C203.398 410.094 201.424 403.573 204.52 398.277C206.674 394.623 207.684 389.767 210.399 384.125C214.08 385.72 218.141 388.241 220.789 392.103Z" fill="#425045"/>
<path d="M276.619 359.497C275.542 359.983 274.375 360.538 273.096 361.139C269.819 357.277 267.508 352.213 266.274 346.108C265.646 343.009 265.399 340.141 265.287 337.852C266.678 338.176 267.935 338.5 269.034 338.8C269.146 340.72 269.416 342.963 269.887 345.368C270.874 350.154 272.826 355.496 276.619 359.497Z" fill="#425045"/>
<path d="M260.642 336.927C259.453 336.742 258.241 336.58 256.984 336.464C256.715 338.893 256.446 342.916 256.917 347.495C257.68 354.895 260.126 361 264.053 365.463C265.265 364.885 266.431 364.307 267.553 363.775C259.542 355.681 260.081 342.13 260.642 336.927Z" fill="#425045"/>
<path d="M273.073 332.695C272.086 358.156 287.479 359.636 287.479 359.636C287.479 359.636 290.643 359.543 297.936 357.485C298.609 357.3 299.327 357.092 300.09 356.861C304.825 355.427 310.996 353.276 318.827 350.016C319.747 349.623 320.712 349.229 321.677 348.813C326.793 346.616 332.583 343.957 339.045 340.766C348.829 335.956 360.206 329.897 373.333 322.312C411.166 300.459 444.399 270.097 456.673 245.029C464.976 228.125 463.742 213.603 447.922 205.764C445.139 204.376 442.222 203.59 439.238 203.243C419.267 201 399.251 220.748 399.251 220.748C358.972 249.03 346.518 272.964 330.092 292.25C329.419 293.059 328.723 293.846 328.027 294.632C327.579 295.141 327.13 295.626 326.636 296.135C323.988 298.956 320.937 301.754 317.683 304.437C306.845 313.432 293.65 321.457 284.427 326.637C283.777 327.007 283.148 327.353 282.543 327.7C276.843 330.845 273.073 332.695 273.073 332.695Z" fill="#131E07"/>
<path d="M282.565 327.7C282.946 329.527 283.485 331.354 284.113 333.158C284.36 333.828 284.607 334.522 284.876 335.193C288.781 345.206 295.423 354.224 297.958 357.485C298.632 357.3 299.35 357.092 300.113 356.861C298.273 354.548 290.8 344.789 286.694 334.129C286.424 333.458 286.178 332.765 285.953 332.094C285.325 330.29 284.831 328.463 284.472 326.66C283.799 327.006 283.171 327.353 282.565 327.7Z" fill="#425045"/>
<path d="M456.696 245.03C438.632 228.935 437.936 212.169 439.238 203.266C442.222 203.59 445.14 204.399 447.922 205.764C463.742 213.603 464.999 228.102 456.696 245.03Z" fill="#425045"/>
<path d="M284.091 333.158C284.338 333.829 284.584 334.522 284.854 335.193C285.437 334.846 286.043 334.499 286.671 334.129C301.392 325.319 323.248 309.154 347.864 288.735C370.932 269.588 397.231 245.7 400.462 238.508C402.213 234.624 402.302 231.664 400.754 229.767C398.443 226.9 393.327 227.501 391.015 227.964C390.432 228.079 390.05 228.68 390.185 229.282C390.297 229.744 390.701 230.068 391.127 230.091C391.217 230.091 391.285 230.091 391.374 230.068C393.641 229.629 397.657 229.305 399.138 231.132C400.373 232.658 399.497 235.479 398.555 237.607C395.952 243.411 374.096 264.223 346.54 287.07C327.085 303.211 302.738 321.989 285.908 332.117C285.302 332.464 284.697 332.811 284.091 333.158Z" fill="#425045"/>
<path d="M277.808 328.487C281.622 341.066 286.873 352.189 295.49 359.89C295.49 359.89 290.217 365.486 284.135 363.266C279.49 361.578 267.889 342.94 269.146 331.632C272.332 328.995 275.249 327.747 277.808 328.487Z" fill="#425045"/>
<path d="M381.164 354.294C381.164 354.294 383.543 355.149 387.38 356.629C388.48 357.045 389.691 357.508 390.993 358.017C392.743 358.687 394.65 359.45 396.692 360.283C397.859 360.745 399.049 361.231 400.305 361.74C415.676 368.03 435.917 377.094 443.591 384.009C444.13 384.494 444.646 384.98 445.139 385.442C456.741 396.473 458.222 404.659 460.847 403.457C463.607 402.231 465.178 395.594 461.745 390.53C459.366 387.015 458.065 382.228 454.99 376.794C454.16 375.314 453.195 373.811 452.051 372.261C447.002 365.416 438.385 357.785 433.785 352.235C433.493 351.889 433.202 351.519 432.955 351.195C429.207 346.339 428.781 337.505 421.196 333.643C417.494 331.747 412.737 331.493 408.047 332.001C407.217 332.094 406.386 332.209 405.556 332.348C404.322 332.556 403.11 332.788 401.943 333.042C400.328 333.412 398.779 333.828 397.366 334.267C395.997 334.684 394.763 335.077 393.685 335.47C391.082 336.372 389.467 337.112 389.467 337.112L381.164 354.294Z" fill="white"/>
<path d="M408.047 332.001C411.817 339.124 420.837 353.022 433.807 352.258C433.516 351.912 433.224 351.542 432.977 351.218C429.23 346.362 428.803 337.528 421.219 333.666C417.494 331.747 412.737 331.492 408.047 332.001Z" fill="#425045"/>
<path d="M445.139 385.443C456.741 396.473 458.222 404.659 460.847 403.457C463.607 402.231 465.178 395.594 461.745 390.53C459.366 387.015 458.065 382.228 454.99 376.794C451.445 378.644 447.54 381.419 445.139 385.443Z" fill="#425045"/>
<path d="M387.402 356.629C388.502 357.045 389.714 357.508 391.015 358.016C394.044 353.947 396.042 348.743 396.894 342.546C397.321 339.424 397.41 336.533 397.343 334.244C395.974 334.66 394.74 335.054 393.663 335.447C393.663 337.366 393.551 339.632 393.214 342.037C392.563 346.917 390.948 352.374 387.402 356.629Z" fill="#425045"/>
<path d="M396.715 360.283C397.882 360.745 399.071 361.231 400.328 361.739C403.963 357.045 406.027 350.801 406.319 343.355C406.498 338.753 405.982 334.753 405.578 332.348C404.344 332.556 403.133 332.787 401.966 333.042C402.818 338.198 404.21 351.68 396.715 360.283Z" fill="#425045"/>
<path d="M200.683 257.054C215.426 280.664 250.813 305.477 288.579 324.139C324.594 341.922 347.191 350.293 360.228 354.247C360.654 354.386 361.081 354.502 361.507 354.617C371.268 357.485 375.195 357.716 375.195 357.716C375.195 357.716 390.454 355.219 387.896 329.874C387.896 329.874 383.363 326.266 376.586 320.878C376.003 320.416 375.397 319.93 374.791 319.445C361.889 309.2 342.321 293.684 329.508 283.532C293.605 255.089 290.306 256.754 257.208 228.819C257.208 228.819 236.362 209.995 217.355 211.313C213.227 211.591 209.187 212.655 205.485 214.805C189.418 224.125 189.867 239.711 200.683 257.054Z" fill="#131E07"/>
<path d="M360.251 354.224C360.296 354.294 360.341 354.363 360.408 354.409C360.565 354.548 360.745 354.641 360.924 354.687C361.126 354.733 361.328 354.71 361.53 354.617C361.642 354.571 361.777 354.479 361.867 354.363C369.025 346.524 373.244 333.967 375.286 326.382C375.487 325.619 375.667 324.902 375.846 324.255C376.206 322.798 376.452 321.618 376.609 320.878C376.026 320.416 375.42 319.93 374.814 319.445C374.792 319.491 374.792 319.514 374.792 319.56C374.792 319.607 374.523 321.017 373.962 323.237C373.804 323.885 373.625 324.602 373.423 325.365C371.448 332.718 367.297 345.298 360.408 352.883C360.027 353.276 359.982 353.808 360.251 354.224Z" fill="#425045"/>
<path d="M217.356 211.312C217.356 219.799 216.189 248.08 200.706 257.052C189.89 239.709 189.441 224.123 205.508 214.804C209.188 212.653 213.227 211.589 217.356 211.312Z" fill="#425045"/>
<path d="M257.073 239.156C260.731 246.14 288.466 268.224 312.701 285.799C336.779 303.281 358.253 317.225 373.4 325.365C374.051 325.712 374.679 326.036 375.285 326.359C375.487 325.596 375.666 324.879 375.846 324.232C375.218 323.908 374.589 323.561 373.961 323.214C356.727 313.872 333.099 297.939 313.913 284.018C285.011 263.044 261.875 243.735 258.913 238.115C257.836 236.08 256.804 233.305 257.926 231.71C259.272 229.79 263.311 229.837 265.6 230.114C265.645 230.114 265.69 230.114 265.735 230.114C266.229 230.114 266.655 229.744 266.745 229.235C266.857 228.634 266.453 228.056 265.847 227.964C263.513 227.663 258.375 227.409 256.243 230.415C254.807 232.473 255.076 235.41 257.073 239.156Z" fill="#425045"/>
<path d="M382.915 325.966C379.885 338.777 375.352 350.224 367.229 358.48C367.229 358.48 372.839 363.706 378.763 361.116C383.296 359.127 393.708 339.772 391.756 328.556C388.412 326.128 385.428 325.064 382.915 325.966Z" fill="#425045"/>
<path d="M428.646 217.257C423.418 230.184 411.143 229.745 397.881 210.135C390.207 198.781 383.475 186.941 378.202 176.951C376.16 173.089 374.365 169.505 372.794 166.337L372.996 147.606L395.458 132.713C395.458 132.713 403.626 145.802 411.973 161.989C422.318 182.015 432.91 206.735 428.646 217.257Z" fill="#E8A36F"/>
<path d="M347.191 244.937C358.523 236.959 372.435 227.57 377.955 222.483C391.531 209.949 415.362 189.877 427.816 199.751C427.816 199.751 438.138 220.425 421.264 234.092C405.197 247.111 369.159 261.61 352.352 267.137C350.399 259.806 348.178 252.476 347.191 244.937Z" fill="#E8A36F"/>
<path d="M396.131 208.285C396.311 208.285 396.49 208.215 396.647 208.077C402.953 202.434 411.906 198.942 411.996 198.896C412.422 198.734 412.647 198.225 412.49 197.786C412.333 197.347 411.839 197.115 411.413 197.277C411.031 197.416 402.078 200.931 395.548 206.758C395.189 207.082 395.166 207.614 395.458 207.984C395.615 208.215 395.885 208.308 396.131 208.285Z" fill="#B05935"/>
<path d="M397.5 207.128C397.904 207.105 398.241 206.805 398.286 206.388C398.824 202.503 403.536 198.734 403.581 198.688C403.94 198.387 404.008 197.855 403.738 197.462C403.447 197.092 402.931 197 402.549 197.3C402.325 197.462 397.253 201.555 396.603 206.134C396.535 206.62 396.849 207.059 397.321 207.105C397.388 207.128 397.455 207.128 397.5 207.128Z" fill="#B05935"/>
<path d="M414.195 160.463C414.195 160.463 413.432 161.041 412.018 162.012C411.929 162.081 411.816 162.151 411.727 162.22C411.3 162.521 410.829 162.821 410.313 163.168C408.697 164.209 406.633 165.481 404.209 166.845C403.828 167.053 403.424 167.284 403.02 167.492C398.308 170.059 392.339 172.857 385.629 174.985C384.956 175.193 384.306 175.401 383.632 175.586C383.498 175.632 383.386 175.655 383.251 175.702C382.802 175.84 382.376 175.956 381.905 176.072C380.715 176.395 379.481 176.696 378.247 176.95C376.968 177.228 375.666 177.482 374.365 177.69C374.365 177.69 373.759 177.089 372.727 176.002L372.839 166.336L373.041 147.605L373.467 108.779C376.766 111.045 380.491 114.051 384.485 117.959C384.889 118.352 385.315 118.769 385.719 119.185C387.649 121.151 389.669 123.324 391.711 125.729C392.025 126.099 392.316 126.446 392.631 126.816C395.974 130.817 399.43 135.465 402.93 140.83C403.245 141.292 403.536 141.778 403.85 142.263C407.261 147.605 410.739 153.641 414.195 160.463Z" fill="white"/>
<path d="M383.206 175.702C382.757 175.841 382.331 175.956 381.86 176.072C378.381 158.705 381.927 140.46 391.688 125.753C392.002 126.123 392.294 126.47 392.608 126.84C383.206 141.154 379.862 158.844 383.206 175.702Z" fill="#D7C4AC"/>
<path d="M404.187 166.845C403.806 167.053 403.402 167.285 402.998 167.493C399.542 159.145 399.363 149.502 402.931 140.83C403.245 141.292 403.537 141.778 403.851 142.264C400.821 150.311 401.046 159.145 404.187 166.845Z" fill="#D7C4AC"/>
<path d="M241.725 133.892C241.725 133.892 201.782 199.982 209.748 218.898C215.156 231.733 227.431 231.131 240.401 211.313C258.667 183.448 271.3 152.854 271.3 152.854L241.725 133.892Z" fill="#E8A36F"/>
<path d="M291.585 245.354C280.141 237.537 266.094 228.38 260.507 223.385C246.751 211.06 222.651 191.334 210.332 201.417C210.332 201.417 200.301 222.229 217.355 235.664C233.602 248.452 269.842 262.397 286.739 267.669C288.601 260.269 290.71 252.915 291.585 245.354Z" fill="#E8A36F"/>
<path d="M242.151 209.441C241.971 209.441 241.792 209.371 241.635 209.232C235.239 203.683 226.241 200.33 226.151 200.283C225.703 200.121 225.478 199.613 225.635 199.173C225.792 198.711 226.286 198.48 226.712 198.641C227.094 198.78 236.092 202.156 242.712 207.891C243.071 208.192 243.116 208.747 242.824 209.117C242.644 209.348 242.398 209.464 242.151 209.441Z" fill="#B05935"/>
<path d="M240.76 208.308C240.356 208.284 240.019 207.984 239.952 207.568C239.368 203.706 234.589 199.983 234.544 199.937C234.162 199.659 234.095 199.104 234.364 198.711C234.634 198.318 235.172 198.248 235.554 198.526C235.778 198.688 240.917 202.711 241.612 207.267C241.68 207.729 241.366 208.192 240.917 208.261C240.849 208.308 240.805 208.308 240.76 208.308Z" fill="#B05935"/>
<path d="M290.239 133.638C290.172 134.123 290.082 134.632 289.992 135.118C289.701 136.69 289.319 138.309 288.826 139.951C287.861 143.258 286.38 146.68 284.629 150.033C284.293 150.658 283.956 151.282 283.597 151.906C275.743 165.943 263.514 178.5 263.514 178.5C262.033 178.292 260.574 178.014 259.138 177.737C256.625 177.205 254.179 176.58 251.823 175.84C251.329 175.702 250.858 175.54 250.387 175.378C234.701 170.29 223.414 161.85 223.414 161.85C224.828 158.936 226.264 156.161 227.7 153.525C227.947 153.086 228.194 152.646 228.418 152.207C233.714 142.564 239.01 134.771 244.059 128.481C244.35 128.111 244.642 127.764 244.911 127.417C247.245 124.55 249.534 122.006 251.733 119.74C252.047 119.416 252.384 119.092 252.698 118.769C258.353 113.126 263.424 109.357 267.508 106.883C267.912 106.651 268.316 106.397 268.697 106.189C274.128 103.067 277.539 102.327 277.763 102.304C282.139 105.102 285.729 109.079 288.018 114.097C288.22 114.514 288.399 114.953 288.579 115.392C290.621 120.503 291.339 126.631 290.239 133.638Z" fill="white"/>
<path d="M290.239 133.638C290.172 134.123 290.082 134.632 289.992 135.118C289.611 135.141 289.207 135.164 288.825 135.164C279.917 135.395 271.008 133.175 263.244 128.805C258.981 126.423 255.099 123.37 251.733 119.74C252.047 119.416 252.384 119.092 252.698 118.768C255.839 122.191 259.519 125.105 263.514 127.394C265.376 128.458 267.306 129.406 269.303 130.215C276.08 132.99 283.193 134.031 290.239 133.638Z" fill="#D7C4AC"/>
<path d="M284.607 150.033C284.27 150.657 283.934 151.282 283.575 151.906C278.212 153.849 273.095 156.577 268.338 160.092C265.309 162.335 262.459 164.81 259.744 167.446C256.961 170.105 254.336 172.95 251.8 175.863C251.307 175.725 250.835 175.563 250.364 175.401C253.393 171.909 256.535 168.533 259.901 165.388C263.357 162.15 267.037 159.144 271.031 156.531C275.407 153.71 279.939 151.559 284.607 150.033Z" fill="#D7C4AC"/>
<path d="M250.184 153.664C245.427 157.71 238.987 158.127 233.265 156.207C231.29 155.537 229.428 154.635 227.677 153.571C227.924 153.132 228.171 152.692 228.396 152.253C234.656 156.184 241.68 158.034 248.299 153.363C253.797 149.501 254.605 142.656 251.598 136.806C249.825 133.383 247.065 130.77 244.036 128.504C244.328 128.134 244.619 127.787 244.889 127.44C248.457 130.146 251.688 133.314 253.483 137.592C255.884 143.281 254.919 149.64 250.184 153.664Z" fill="#D7C4AC"/>
<path d="M288.601 115.392C283.687 116.479 278.458 115.323 274.083 112.641C272.736 111.808 271.48 110.86 270.335 109.819C269.348 108.918 268.405 107.923 267.553 106.883C267.957 106.651 268.361 106.397 268.742 106.189C269.483 107.068 270.268 107.9 271.121 108.686C272.063 109.542 273.05 110.328 274.128 111.022C278.256 113.727 283.305 115.069 288.062 114.097C288.242 114.514 288.422 114.953 288.601 115.392Z" fill="#D7C4AC"/>
<path d="M264.411 178.269C264.568 178.269 264.725 178.222 264.838 178.107C278.705 165.897 286.626 147.536 286.694 147.374C286.851 147.027 286.694 146.611 286.335 146.449C285.998 146.287 285.594 146.449 285.437 146.819C285.37 147.004 277.561 165.064 263.94 177.066C263.648 177.321 263.626 177.76 263.873 178.061C264.03 178.176 264.209 178.269 264.411 178.269Z" fill="#131E07"/>
<path d="M280.253 158.774C280.298 158.774 280.321 158.774 280.366 158.774C285.347 157.872 289.858 154.334 290.037 154.172C290.329 153.941 290.396 153.502 290.172 153.201C289.947 152.9 289.521 152.831 289.229 153.062C289.184 153.085 284.809 156.531 280.141 157.387C279.782 157.456 279.535 157.826 279.603 158.196C279.648 158.543 279.939 158.774 280.253 158.774Z" fill="#131E07"/>
<path d="M372.839 175.147C373.198 175.147 373.489 174.869 373.512 174.499C373.579 173.436 375.217 148.16 371.47 137.384C371.335 137.014 370.954 136.829 370.595 136.968C370.236 137.107 370.056 137.5 370.191 137.87C373.826 148.368 372.165 174.176 372.143 174.43C372.121 174.823 372.39 175.147 372.771 175.17C372.816 175.147 372.839 175.147 372.839 175.147Z" fill="#131E07"/>
<path d="M283.17 287.209L275.227 271.901C273.252 268.085 275.945 263.46 280.141 263.483L403.401 263.922L399.901 283.625L283.17 287.209Z" fill="#A36A24"/>
<path d="M397.41 284.273L287.12 285.105C284.449 285.128 282.52 282.908 282.789 280.179L289.812 209.903C290.082 207.152 292.46 204.909 295.131 204.885L405.421 204.053C408.091 204.03 410.021 206.25 409.752 208.978L402.728 279.254C402.459 282.006 400.08 284.249 397.41 284.273Z" fill="#D5963D"/>
<path d="M285.84 285.891C285.796 285.891 285.773 285.891 285.728 285.891C285.212 285.821 284.853 285.359 284.92 284.827L293.537 209.533C293.604 209.001 294.053 208.631 294.569 208.701C295.085 208.77 295.445 209.232 295.377 209.764L286.76 285.058C286.693 285.521 286.312 285.891 285.84 285.891Z" fill="#A36A24"/>
<path d="M339.202 243.619C338.82 249.262 342.882 254.095 348.29 254.418C353.698 254.742 358.365 250.418 358.747 244.775C359.128 239.133 355.067 234.3 349.659 233.999C344.273 233.652 339.583 237.977 339.202 243.619Z" fill="#A36A24"/>
<path d="M398.33 288.134L286.514 288.967C284.045 288.99 282.138 286.77 282.452 284.249L283.462 276.202L403.469 275.3L402.324 284.481C402.055 286.562 400.35 288.111 398.33 288.134Z" fill="#A36A24"/>
<path d="M108.95 292.736C108.95 292.736 107.693 285.36 108.478 274.028C109.735 255.945 121.695 240.428 138.525 235.156C152.437 230.808 170.838 228.033 189.732 233.768C191.123 234.185 192.514 234.647 193.906 235.179C234.23 250.117 228.889 329.412 222.696 373.95C216.502 418.512 216.098 445.336 197.788 449.73C189.373 451.742 177.098 451.996 166.26 451.696C163.994 451.626 161.817 451.534 159.73 451.441C159.73 451.441 136.954 453.661 125.173 443.417C113.393 433.173 108.95 292.736 108.95 292.736Z" fill="#731F07"/>
<path d="M166.238 451.696C177.076 452.019 189.35 451.765 197.765 449.73C216.076 445.336 216.48 418.488 222.673 373.95C228.866 329.412 234.229 250.117 193.883 235.179C192.492 234.67 191.101 234.207 189.709 233.768C182.865 235.502 176.605 240.243 173.284 250.557C164.263 278.584 179.589 375.523 166.238 451.696Z" fill="#A5410F"/>
<path d="M188.902 444.134C197.249 444.065 203.734 440.457 207.661 433.682C213.809 423.067 222.112 332.256 222.471 328.395C222.516 327.932 222.179 327.493 221.708 327.447C221.237 327.4 220.833 327.747 220.788 328.233C220.698 329.181 212.149 422.512 206.202 432.803C202.433 439.324 196.374 442.538 188.206 442.423C181.99 442.33 176.829 440.226 176.784 440.203C176.358 440.018 175.864 440.249 175.707 440.688C175.528 441.128 175.752 441.636 176.178 441.798C176.403 441.891 181.631 444.018 188.139 444.134C188.385 444.134 188.655 444.134 188.902 444.134Z" fill="#731F07"/>
<path d="M179.522 260.339C179.993 260.339 180.352 259.945 180.352 259.46C180.33 256.731 182.147 250.071 186.591 246.417C189.44 244.059 192.851 243.342 196.688 244.267C206.472 246.602 209.434 259.321 209.456 259.437C209.569 259.899 210.017 260.2 210.466 260.084C210.915 259.969 211.207 259.506 211.094 259.044C210.96 258.489 207.886 245.146 197.07 242.579C192.694 241.538 188.812 242.371 185.536 245.076C180.801 248.984 178.647 255.991 178.669 259.483C178.669 259.969 179.051 260.339 179.522 260.339Z" fill="#731F07"/>
<path d="M183.943 265.634C183.943 265.634 184.481 250.395 195.656 251.528C206.809 252.661 207.527 277.775 197.586 281.105C183.023 285.961 183.943 265.634 183.943 265.634Z" fill="#731F07"/>
<path d="M307.585 47.1051C307.585 47.1051 295.198 54.5744 299.597 59.7312C303.995 64.9111 308.797 63.8705 308.797 63.8705C308.797 63.8705 302.738 71.0623 309.784 75.3172C316.808 79.5722 324.953 62.2287 324.953 62.2287C324.953 62.2287 317.638 42.4571 307.585 47.1051Z" fill="#A36A24"/>
<path d="M304.084 43.8678C304.084 43.8678 295.669 31.4036 298.699 24.628C301.728 17.8525 306.71 18.8006 306.71 18.8006C306.71 18.8006 305.229 6.29015 311.22 3.07581C317.211 -0.138521 324.931 3.76956 324.931 3.76956C324.931 3.76956 329.329 2.65957 336.554 3.09894C343.129 3.49206 344.363 8.71824 344.363 8.71824C344.363 8.71824 361.619 4.94892 367.072 10.8457C372.525 16.7425 364.94 24.3274 364.94 24.3274C364.94 24.3274 382.511 26.0387 379.414 38.3872C377.013 47.9609 362.629 47.7296 362.629 47.7296C362.629 47.7296 364.828 58.9682 354.663 59.4076C350.579 59.5926 315.798 40.746 304.084 43.8678Z" fill="#A36A24"/>
<path d="M307.136 92.615C311.557 97.0781 316.875 99.4368 321.363 100.709C328.342 102.721 336.398 100.755 341.828 97.4712L342.232 86.6951L342.322 84.4983L342.479 80.3358L317.661 62.2754L316.224 61.2348L315.259 60.541L314.9 61.466L314.497 62.5297L314.609 62.9922C312.387 73.3984 311.131 85.2382 307.136 92.615Z" fill="#E8A36F"/>
<path d="M341.918 95.228C331.82 92.3606 326.547 82.9719 324.348 77.7689C329.217 82.1163 335.164 85.0531 340.616 84.7063C341.2 84.66 341.783 84.5907 342.322 84.4982L341.918 95.228Z" fill="#131E07"/>
<path d="M314.093 61.4658C314.138 61.4889 314.205 61.4889 314.25 61.4889C314.317 61.8357 314.384 62.1826 314.474 62.5295C314.519 62.6914 314.542 62.8301 314.586 62.992C317.436 73.4906 329.913 85.3767 340.616 84.7061C341.2 84.6598 341.783 84.5905 342.322 84.498C352.419 82.6711 355.359 70.7619 354.439 62.0901C354.439 62.0901 354.461 61.7664 354.529 61.1883C354.551 60.9801 354.574 60.7489 354.596 60.4945C354.686 59.6852 354.798 58.5752 354.955 57.2802C354.955 57.2571 354.955 57.2571 354.955 57.2339C355.426 53.349 356.189 47.6372 357.289 42.041C359.196 32.1668 353.586 17.1126 334.086 12.4876C314.586 7.86269 306.441 22.385 306.486 32.8836C306.486 35.5198 306.979 38.5723 307.697 41.671C305.812 41.6941 303.77 42.6422 302.536 45.9722C300.225 52.1002 307.136 60.3558 314.093 61.4658Z" fill="#E8A36F"/>
<path d="M346.428 67.8254C343.174 68.7041 339.741 67.6404 337.542 65.0041C337.026 64.3797 337.878 63.4316 338.417 64.056C340.324 66.3453 343.219 67.3397 346.069 66.5535C346.877 66.3453 347.213 67.5941 346.428 67.8254Z" fill="#B05935"/>
<g opacity="0.5">
<g opacity="0.5">
<g opacity="0.5">
<g opacity="0.5">
<g opacity="0.5">
<g opacity="0.5">
<path opacity="0.5" d="M326.053 56.1705C325.941 57.2805 328.544 58.506 331.887 58.8992C335.231 59.2923 338.036 58.691 338.17 57.5811C338.305 56.4711 335.679 55.2455 332.336 54.8524C328.97 54.4593 326.165 55.0374 326.053 56.1705Z" fill="#B05935"/>
</g>
</g>
</g>
</g>
</g>
</g>
<g opacity="0.5">
<g opacity="0.5">
<g opacity="0.5">
<g opacity="0.5">
<g opacity="0.5">
<g opacity="0.5">
<path opacity="0.5" d="M354.529 61.2117C354.551 61.0036 354.574 60.7724 354.596 60.518C354.686 59.7086 354.798 58.5987 354.955 57.3037C354.955 57.2806 354.955 57.2806 354.955 57.2574C352.217 57.1418 350.086 57.7199 349.996 58.6912C349.884 59.6393 351.813 60.6799 354.529 61.2117Z" fill="#B05935"/>
</g>
</g>
</g>
</g>
</g>
</g>
<path d="M333.054 43.3364C332.74 43.2439 332.47 43.0589 332.224 42.8046C331.438 41.9952 331.438 40.6771 332.224 39.8446C332.403 39.6596 336.913 35.1503 342.344 37.7171C343.354 38.2027 343.802 39.4284 343.331 40.4921C342.86 41.5327 341.671 41.9952 340.638 41.5096C337.721 40.1221 335.096 42.7814 335.073 42.8046C334.535 43.3827 333.75 43.5445 333.054 43.3364Z" fill="#A36A24"/>
<path d="M353.99 45.7646C353.429 45.5796 352.935 45.1633 352.711 44.539C352.083 42.8971 349.278 42.5502 348.56 42.5271C347.438 42.5271 346.54 41.579 346.563 40.4228C346.563 39.2665 347.483 38.3416 348.605 38.3647C350.871 38.3878 355.09 39.3822 356.503 42.9896C356.907 44.0533 356.414 45.2789 355.381 45.6952C354.888 45.9033 354.416 45.9033 353.99 45.7646Z" fill="#A36A24"/>
<path d="M350.871 52.9796C350.625 54.3902 349.862 55.4308 349.144 55.3152C348.425 55.1996 348.044 53.9509 348.291 52.5403C348.538 51.1297 349.301 50.0891 350.019 50.2047C350.737 50.3203 351.118 51.569 350.871 52.9796Z" fill="#131E07"/>
<path d="M346.809 49.7188C346.742 49.6957 346.675 49.6263 346.652 49.557C346.563 49.372 346.607 49.1407 346.787 49.0482C346.944 48.9557 350.445 46.9669 353.182 49.372C353.339 49.5107 353.362 49.742 353.227 49.9038C353.093 50.0657 352.868 50.0888 352.711 49.9501C350.355 47.892 347.191 49.6957 347.146 49.7188C347.034 49.7651 346.899 49.7651 346.809 49.7188Z" fill="#131E07"/>
<path d="M355.538 45.1864C351.118 44.192 346.764 47.0826 345.777 51.6382C345.575 52.5401 345.553 53.4419 345.62 54.2975L347.011 54.8294C346.832 53.9044 346.854 52.9101 347.056 51.9388C347.864 48.1001 351.522 45.6952 355.247 46.5276C358.949 47.3601 361.305 51.1295 360.497 54.9682C359.69 58.8069 356.009 61.2118 352.307 60.3793C350.579 59.9862 349.121 58.9687 348.178 57.5812L347.056 58.2519C348.178 59.9631 349.928 61.235 352.038 61.6974C356.436 62.6687 360.812 59.8012 361.776 55.2457C362.741 50.667 359.936 46.1808 355.538 45.1864Z" fill="white"/>
<path d="M327.781 50.482C328.746 45.9495 333.122 43.0589 337.52 44.0302C341.918 45.0245 344.723 49.5339 343.781 54.0663C342.816 58.5988 338.44 61.4894 334.042 60.5181C329.621 59.5238 326.816 55.0144 327.781 50.482ZM329.038 50.7595C328.23 54.5751 330.586 58.3675 334.289 59.2C337.991 60.0325 341.671 57.6044 342.479 53.7888C343.287 49.9732 340.931 46.1808 337.228 45.3483C333.526 44.5158 329.846 46.9439 329.038 50.7595Z" fill="white"/>
<path d="M360.094 55.6386C360.296 55.6849 360.52 55.6386 360.677 55.4768C360.947 55.2224 360.947 54.8061 360.7 54.5287C360.633 54.4593 359.151 52.8637 356.167 52.3318C355.808 52.2624 355.471 52.5168 355.404 52.8868C355.337 53.2568 355.584 53.6037 355.943 53.673C358.478 54.1355 359.735 55.4536 359.757 55.4768C359.87 55.5461 359.982 55.6155 360.094 55.6386Z" fill="white"/>
<path d="M329.217 47.4523C323.787 44.8161 319.792 44.9549 317.414 45.5099L317.549 46.8742C319.658 46.3655 323.45 46.1574 328.679 48.6779C328.993 48.8398 329.397 48.7011 329.554 48.3542C329.688 48.0305 329.554 47.6142 329.217 47.4523Z" fill="white"/>
<path d="M307.697 41.6713C307.697 41.6713 312.05 41.255 314.721 43.9375C317.391 46.5968 317.234 53.4417 320.847 53.8117C324.459 54.1817 319.59 36.7226 321.497 34.2945C323.382 31.8664 333.951 34.7338 337.183 30.4558C340.392 26.2008 344.206 26.2239 347.909 30.2014C351.611 34.1788 360.587 37.8557 359.847 31.9126C359.106 25.9696 345.508 10.2216 333.66 9.85165C321.834 9.48165 309.56 12.141 306.373 24.3277C303.187 36.4913 307.697 41.6713 307.697 41.6713Z" fill="#A36A24"/>
<path d="M319.321 60.8878C318.828 61.5121 318.244 61.9746 317.661 62.2984C316.584 62.8765 315.439 63.0153 314.609 63.0153C314.564 62.8534 314.519 62.7146 314.497 62.5528C314.407 62.2059 314.34 61.859 314.272 61.489C314.227 61.489 314.183 61.4659 314.115 61.4659C314.34 61.489 314.609 61.489 314.901 61.4659C315.305 61.4428 315.753 61.3965 316.225 61.2347C316.92 61.0265 317.616 60.6334 318.177 59.9165C318.424 59.5928 318.895 59.5465 319.209 59.8009C319.523 60.1015 319.568 60.564 319.321 60.8878Z" fill="#B05935"/>
<path d="M341.514 70.8082C340.504 70.4845 340.033 69.6982 340.011 69.652C339.876 69.4207 339.943 69.1201 340.168 68.9813C340.392 68.8426 340.684 68.912 340.818 69.1432C340.841 69.1895 341.469 70.1839 342.838 69.9295C343.107 69.8832 343.354 70.0682 343.399 70.3226C343.444 70.6001 343.264 70.8545 343.017 70.9007C342.412 70.9932 341.918 70.947 341.514 70.8082Z" fill="#B05935"/>
<path d="M312.949 56.1934C312.657 56.1009 312.455 55.8234 312.432 55.4997C312.186 50.1347 306.419 46.9898 306.374 46.9435C306.015 46.7585 305.88 46.296 306.06 45.926C306.239 45.556 306.688 45.4173 307.047 45.6023C307.316 45.741 313.599 49.1635 313.913 55.4303C313.936 55.8466 313.622 56.1934 313.218 56.2166C313.128 56.2166 313.038 56.2166 312.949 56.1934Z" fill="#B05935"/>
<path d="M307.024 52.3317C306.934 52.3086 306.844 52.2624 306.777 52.193C306.463 51.9155 306.418 51.453 306.687 51.1292C306.755 51.0367 308.46 48.9786 311.4 49.5336C311.804 49.603 312.073 49.9961 311.983 50.4124C311.893 50.8286 311.534 51.1061 311.13 51.0136C309.021 50.6205 307.832 52.0774 307.832 52.1005C307.607 52.3549 307.293 52.4242 307.024 52.3317Z" fill="#B05935"/>
<path d="M344.61 60.3096C344.431 60.2634 344.296 60.1477 344.184 59.9627C343.982 59.5927 344.094 59.1302 344.453 58.9221L348.717 56.3784L345.328 54.8753C345.127 54.7828 344.992 54.6209 344.925 54.4128L342.164 45.1629C342.052 44.7698 342.254 44.3305 342.658 44.2148C343.04 44.0992 343.466 44.3073 343.578 44.7236L346.248 53.6266L350.669 55.5922C350.916 55.7078 351.095 55.9622 351.118 56.2397C351.14 56.5172 350.983 56.7947 350.759 56.9334L345.239 60.2402C345.014 60.3559 344.79 60.379 344.61 60.3096Z" fill="#B05935"/>
<path d="M343.062 50.1352C343.264 50.1814 343.488 50.1352 343.646 49.9733C343.847 49.7652 344.925 48.8633 346.047 50.0195C346.293 50.2739 346.72 50.2739 346.967 50.0195C347.213 49.7652 347.213 49.3258 346.967 49.0714C345.306 47.337 343.488 48.262 342.748 49.002C342.479 49.2564 342.479 49.6727 342.725 49.9502C342.838 50.0427 342.95 50.112 343.062 50.1352Z" fill="white"/>
<path d="M338.911 51.0602C338.664 52.4708 337.901 53.5114 337.183 53.3958C336.465 53.2801 336.083 52.0314 336.33 50.6208C336.577 49.2102 337.34 48.1696 338.058 48.2852C338.753 48.4008 339.135 49.6496 338.911 51.0602Z" fill="#131E07"/>
<path d="M334.198 48.2154C334.131 48.1923 334.064 48.146 334.019 48.0767C333.907 47.9148 333.929 47.6605 334.086 47.5448C334.221 47.4292 337.452 45.0013 340.481 47.0361C340.661 47.1517 340.706 47.383 340.594 47.568C340.481 47.7529 340.257 47.7992 340.077 47.6836C337.497 45.9493 334.557 48.146 334.535 48.1692C334.423 48.2154 334.31 48.2385 334.198 48.2154Z" fill="#131E07"/>
<path d="M158.564 45.3243L130.245 16.5803C129.886 16.2103 129.392 16.0021 128.854 16.0253C128.338 16.0484 127.844 16.2796 127.507 16.6727L87.3854 62.6678C87.0712 63.0378 86.8917 63.5003 86.8917 63.9859L89.9211 490.822L93.7133 490.799L90.684 64.7028L129.011 20.7889L155.916 48.1224C156.656 48.8855 157.868 48.8624 158.586 48.0992C159.327 47.313 159.304 46.0874 158.564 45.3243Z" fill="#131E07"/>
<path d="M130.873 508.489L52.9855 509.067L52.9631 506.061C52.8733 494.846 61.6472 485.688 72.5304 485.619L111.037 485.318C121.92 485.226 130.806 494.268 130.873 505.483V508.489Z" fill="#131E07"/>
<path d="M197.496 59.222C203.756 66.6219 203.016 77.8836 195.835 84.3354C188.655 90.7872 177.726 90.0241 171.466 82.6242C165.205 75.2012 165.946 63.9626 173.126 57.5108C180.307 51.0359 191.235 51.799 197.496 59.222Z" fill="white"/>
<path d="M222.426 41.4854C203.689 24.2574 174.989 23.6793 155.556 41.1154C136.124 58.5745 132.78 87.9429 146.782 109.426L222.426 41.4854Z" fill="#131E07"/>
<path d="M568.647 422.073L568.445 423.645L568.22 425.518L567.929 427.738L566.784 437.034L566.65 438.052L565.438 447.787L565.303 448.828L560.479 487.423L560.367 488.464L557.876 508.374L503.639 508.79L502.854 503.148L502.719 502.107L502.293 499.078L502.136 498.084L499.757 480.971L499.6 479.769L494.26 441.451L494.08 440.249L493.115 433.311L491.634 422.651L568.647 422.073Z" fill="#D5963D"/>
<path d="M509.316 464.923C508.396 471.352 504.873 477.225 499.757 480.948L499.6 479.769C505.973 474.843 509.675 466.241 508.216 458.055C506.848 450.401 501.215 444.111 494.259 441.428L494.08 440.226C496.234 440.989 498.298 442.099 500.161 443.509C506.735 448.435 510.505 456.575 509.316 464.923Z" fill="#A36A24"/>
<path d="M566.784 437.034L566.65 438.028C560.097 437.358 553.971 439.532 548.586 443.37C543.963 446.677 539.296 450.701 533.394 450.77C528.345 450.816 523.296 448.065 520.671 443.602C517.844 438.815 517.933 432.64 520.649 427.854C520.985 427.252 521.883 427.784 521.546 428.386C517.911 434.791 519.571 443.324 525.697 447.394C531.128 451.001 537.209 449.891 542.437 446.515C547.396 443.301 551.682 439.3 557.494 437.751C560.591 436.919 563.732 436.71 566.784 437.034Z" fill="#A36A24"/>
<path d="M568.445 423.645L568.22 425.518C567.704 426.351 567.121 427.114 566.47 427.854C563.508 431.253 559.424 433.566 554.959 434.144C549.91 434.791 544.771 433.08 540.912 429.75C540.104 429.056 539.341 428.27 538.645 427.438C538.219 426.929 538.937 426.166 539.363 426.674C540.283 427.784 541.315 428.779 542.437 429.634C545.871 432.224 550.134 433.566 554.443 433.126C558.437 432.733 562.139 430.814 564.944 427.946C566.111 426.744 567.143 425.379 567.951 423.899C568.063 423.691 568.265 423.622 568.445 423.645Z" fill="#A36A24"/>
<path d="M565.437 447.787L565.303 448.828C563.35 448.92 561.421 449.568 559.783 450.817C556.551 453.291 555.025 457.731 555.923 461.755C556.641 464.946 558.571 467.813 558.661 471.19C558.728 473.895 557.539 476.393 555.833 478.405C551.413 483.631 544.456 484.741 539.273 488.834C533.932 493.066 532.182 501.113 535.525 507.241C535.772 507.704 536.064 508.143 536.356 508.582H535.099C534.852 508.189 534.605 507.773 534.403 507.334C531.486 501.437 532.653 493.713 537.321 489.158C542.863 483.723 551.929 483.122 556.192 476.138C558.705 472.045 557.045 468.345 555.586 464.252C554.419 461.015 554.262 457.708 555.654 454.517C557.494 450.331 561.376 447.972 565.437 447.787Z" fill="#A36A24"/>
<path d="M550.538 498.87C550.47 503.102 552.849 506.64 556.215 508.397L554.24 508.42C551.211 506.2 549.281 502.5 549.528 498.338C549.887 492.164 554.801 487.677 560.501 487.423L560.366 488.464C555.093 488.764 550.605 493.158 550.538 498.87Z" fill="#A36A24"/>
<path d="M546.342 466.241C545.87 470.889 541.629 473.618 538.376 476.208C534.09 479.63 529.938 483.353 526.797 487.955C522.758 493.875 520.648 501.899 522.735 508.651H521.658C519.818 502.315 521.344 494.939 524.755 489.181C527.335 484.833 530.858 481.156 534.628 477.896C536.468 476.3 538.42 474.82 540.328 473.294C542.594 471.49 544.906 469.247 545.265 466.148C546.028 459.327 537.5 458.332 532.833 458.702C528.076 459.072 523.117 460.76 520.267 464.946C517.552 468.923 517.058 474.011 516.25 478.682C515.375 483.631 514.006 488.649 511.044 492.742C508.89 495.725 505.681 498.06 502.248 499.078L502.113 498.084C503.706 497.644 505.232 496.881 506.579 495.864C511.471 492.164 513.737 486.059 514.904 480.139C515.801 475.653 516.16 470.958 518.068 466.75C519.818 462.888 522.937 460.205 526.819 458.841C530.836 457.407 535.84 456.968 539.946 458.124C543.537 459.142 546.768 462.171 546.342 466.241Z" fill="#A36A24"/>
<path d="M513.445 508.698H512.39C511.964 506.825 511.089 505.091 509.428 504.004C507.297 502.57 505.008 502.454 502.854 503.125L502.719 502.108C505.434 501.252 508.306 501.553 510.82 503.749C512.278 505.068 513.064 506.825 513.445 508.698Z" fill="#A36A24"/>
<path d="M568.647 422.073L568.445 423.645L568.22 425.518L567.929 427.738L566.47 427.854L564.944 427.969L542.46 429.634L540.911 429.75L493.115 433.311L491.634 422.651L568.647 422.073Z" fill="#171612"/>
<path d="M575.513 422.489C545.287 425.356 515.038 425.588 484.79 423.183L484.722 414.696L575.446 414.025L575.513 422.489Z" fill="#D5963D"/>
<path d="M554.083 314.08C551.278 317.595 549.326 330.568 543.918 332.696C540.193 334.152 538.174 328.626 545.354 321.55C549.977 316.994 552.019 311.583 552.871 308.299C551.548 302.587 549.842 296.737 547.665 291.418C543.514 295.419 536.872 301.107 534.942 298.425C532.833 295.511 539.004 286.215 542.437 281.451C540.799 279.046 539.004 276.942 536.984 275.277C533.708 272.548 529.916 271.022 525.518 271.161C522.354 271.276 519.459 272.479 516.856 274.491C520.626 282.053 526.213 294.84 522.376 297.824C518.831 300.599 513.58 290.007 510.281 282.099C505.771 289.383 502.786 299.327 501.53 308.923C502.427 310.635 503.998 312.623 506.668 314.566C513.759 319.746 522.197 330.221 518.023 332.603C513.849 334.985 509.428 328.811 506.287 323.307C504.671 320.486 502.854 318.196 500.901 316.693C500.857 318.381 500.857 320 500.924 321.596C502.248 351.727 530.791 351.496 530.791 351.496C530.791 351.496 559.356 344.489 554.083 314.08ZM518.157 314.936C515.33 314.936 510.797 309.525 508.665 306.518C506.534 303.489 508.217 301.431 510.236 301.986C510.259 301.986 510.281 302.009 510.326 302.009C513.176 302.888 521.815 314.959 518.157 314.936ZM543.02 307.536C543.043 307.536 543.088 307.513 543.11 307.513C545.13 306.912 546.813 308.299 545.87 310.958C544.659 314.45 542.998 315.861 540.462 314.566C538.847 313.756 540.171 308.438 543.02 307.536Z" fill="#7F784B"/>
<path d="M527.425 306.727C530.028 319.885 529.31 333.505 528.458 346.825C527.538 361.047 526.258 375.315 526.887 389.583C527.246 397.676 528.233 405.747 530.185 413.609C530.342 414.28 531.352 413.979 531.195 413.308C524.216 385.073 530.253 356.237 530.253 327.655C530.253 320.532 529.804 313.41 528.435 306.403C528.3 305.755 527.291 306.056 527.425 306.727Z" fill="#171612"/>
<path d="M514.904 351.75C514.657 356.306 520.491 367.961 517.35 372.979C515.173 376.424 510.393 373.164 512.144 363.105C513.266 356.606 511.807 351.01 510.64 347.842C506.309 344.027 501.575 340.35 496.773 337.367C495.718 343.125 493.609 351.75 490.512 350.756C487.146 349.669 486.809 338.43 486.854 332.487C484.161 331.539 481.491 330.938 478.911 330.822C474.714 330.614 470.765 331.678 467.287 334.476C464.796 336.488 463.136 339.217 462.193 342.431C469.576 346.247 481.379 353.184 480.01 357.901C478.731 362.295 468.431 356.93 461.251 352.56C461.789 361.185 465.065 371.036 469.531 379.546C471.236 380.379 473.637 381.026 476.914 380.98C485.598 380.841 498.433 384.194 496.414 388.634C494.416 393.097 487.303 390.785 481.603 388.264C478.686 386.969 475.904 386.229 473.458 386.206C474.378 387.594 475.32 388.912 476.285 390.137C494.596 413.655 517.529 396.127 517.529 396.127C517.529 396.127 536.558 373.141 514.904 351.75ZM486.383 374.297C484.094 376.008 477.34 374.389 473.907 373.256C470.451 372.123 470.63 369.418 472.583 368.654C472.605 368.654 472.628 368.631 472.672 368.631C475.455 367.591 489.345 372.077 486.383 374.297ZM502.225 353.207C502.248 353.184 502.27 353.161 502.27 353.138C503.549 351.427 505.703 351.519 506.466 354.248C507.476 357.809 506.938 359.936 504.155 360.445C502.427 360.769 500.453 355.658 502.225 353.207Z" fill="#7F784B"/>
<path d="M489.121 361.994C495.875 368.307 502.562 374.852 508.037 382.413C512.233 388.195 515.465 394.554 518.404 401.075C520.491 405.7 522.466 410.371 524.508 414.996C524.777 415.621 525.675 415.066 525.406 414.441C522.062 406.81 518.943 399.04 515.038 391.687C511.538 385.096 507.185 379.107 502.225 373.626C498.321 369.279 494.125 365.209 489.861 361.231C489.368 360.769 488.627 361.532 489.121 361.994Z" fill="#171612"/>
<path d="M540.081 401.376C540.081 401.376 563.149 418.72 581.28 395.063C582.222 393.815 583.165 392.496 584.062 391.109C581.616 391.155 578.856 391.895 575.939 393.236C570.262 395.803 563.171 398.162 561.129 393.722C559.087 389.282 571.9 385.837 580.562 385.906C583.838 385.929 586.216 385.258 587.922 384.403C592.342 375.87 595.551 365.972 596 357.347C588.864 361.787 578.609 367.221 577.286 362.851C575.872 358.133 587.63 351.103 594.99 347.241C594.025 344.027 592.342 341.321 589.852 339.31C586.374 336.535 582.402 335.517 578.206 335.748C575.625 335.887 572.977 336.512 570.284 337.483C570.374 343.426 570.127 354.688 566.761 355.798C563.687 356.815 561.488 348.189 560.411 342.455C555.609 345.461 550.919 349.184 546.611 353.046C545.444 356.237 544.03 361.856 545.219 368.331C547.037 378.39 542.28 381.674 540.081 378.252C536.894 373.28 542.639 361.579 542.37 357.023C520.872 378.529 540.081 401.376 540.081 401.376ZM584.758 373.511C584.78 373.534 584.825 373.534 584.848 373.534C586.822 374.297 587.002 376.98 583.569 378.159C580.135 379.315 573.403 380.98 571.092 379.292C568.085 377.119 581.953 372.517 584.758 373.511ZM553.185 365.602C550.403 365.117 549.842 362.989 550.829 359.428C551.592 356.699 553.724 356.584 555.025 358.272C555.048 358.295 555.07 358.318 555.07 358.341C556.866 360.792 554.936 365.903 553.185 365.602Z" fill="#7F784B"/>
<path d="M567.502 366.273C553.746 380.703 542.841 397.399 532.317 414.396C531.958 414.974 532.855 415.506 533.214 414.928C543.693 398.024 554.532 381.397 568.242 367.013C568.714 366.528 567.973 365.765 567.502 366.273Z" fill="#171612"/>
<path d="M575.446 414.002C575.446 414.858 555.138 415.713 530.095 415.898C505.03 416.083 484.722 415.551 484.722 414.673C484.722 413.817 505.03 412.961 530.073 412.776C555.138 412.591 575.446 413.146 575.446 414.002Z" fill="#171612"/>
</g>
<defs>
<filter id="filter0_d" x="0.00012207" y="4.57764e-05" width="600" height="530.432" filterUnits="userSpaceOnUse" color-interpolation-filters="sRGB">
<feFlood flood-opacity="0" result="BackgroundImageFix"/>
<feColorMatrix in="SourceAlpha" type="matrix" values="0 0 0 0 0 0 0 0 0 0 0 0 0 0 0 0 0 0 127 0" result="hardAlpha"/>
<feOffset dy="4"/>
<feGaussianBlur stdDeviation="2"/>
<feComposite in2="hardAlpha" operator="out"/>
<feColorMatrix type="matrix" values="0 0 0 0 0 0 0 0 0 0 0 0 0 0 0 0 0 0 0.25 0"/>
<feBlend mode="normal" in2="BackgroundImageFix" result="effect1_dropShadow"/>
<feBlend mode="normal" in="SourceGraphic" in2="effect1_dropShadow" result="shape"/>
</filter>
</defs>
</svg>
