<svg width="345" height="283" viewBox="0 0 345 283" fill="none" xmlns="http://www.w3.org/2000/svg">
<rect y="251.56" width="344.544" height="0.172276" fill="#EBEBEB"/>
<rect x="250.139" y="262.652" width="59.8825" height="0.172276" fill="#EBEBEB"/>
<rect x="246.463" y="256.253" width="5.99025" height="0.172276" fill="#EBEBEB"/>
<rect x="193.031" y="261.967" width="13.225" height="0.172276" fill="#EBEBEB"/>
<rect x="36.1489" y="257.411" width="14.8822" height="0.172276" fill="#EBEBEB"/>
<rect x="57.1661" y="257.411" width="19.2462" height="0.172276" fill="#EBEBEB"/>
<rect x="143.101" y="260.235" width="32.2755" height="0.172276" fill="#EBEBEB"/>
<path fill-rule="evenodd" clip-rule="evenodd" d="M30.2606 220.828H163.324C165.495 220.825 167.254 219.065 167.256 216.894V29.8495C167.254 27.6785 165.495 25.9191 163.324 25.9161H30.2606C28.0894 25.9187 26.33 27.6782 26.3273 29.8495V216.894C26.33 219.066 28.0894 220.825 30.2606 220.828ZM26.4996 29.8481C26.5019 27.7718 28.1844 26.0893 30.2606 26.087L163.324 26.0884C165.4 26.091 167.082 27.7735 167.084 29.8495V216.893C167.082 218.969 165.4 220.651 163.324 220.654H30.2606C28.1844 220.652 26.5019 218.969 26.4996 216.893V29.8481Z" fill="#EBEBEB"/>
<path fill-rule="evenodd" clip-rule="evenodd" d="M179.309 220.828H312.371C314.543 220.826 316.303 219.066 316.305 216.894V29.8495C316.303 27.6782 314.543 25.9187 312.372 25.9161H179.309C177.138 25.9191 175.379 27.6785 175.376 29.8495V216.894C175.379 219.065 177.138 220.825 179.309 220.828ZM175.548 29.8481C175.55 27.7721 177.232 26.0896 179.308 26.087L312.371 26.0884C314.447 26.091 316.13 27.7734 316.132 29.8495V216.893C316.13 218.969 314.447 220.651 312.371 220.654H179.308C177.232 220.651 175.55 218.969 175.548 216.893V29.8481Z" fill="#EBEBEB"/>
<rect x="151.264" y="152.746" width="21.3197" height="98.8141" fill="#E6E6E6"/>
<path d="M168.533 251.56H172.583V240.042H164.289L168.533 251.56Z" fill="#F0F0F0"/>
<rect x="44.0989" y="152.746" width="21.3197" height="98.8141" fill="#E6E6E6"/>
<rect x="61.8843" y="152.746" width="110.699" height="91.7459" fill="#F0F0F0"/>
<path d="M169.443 155.891H65.0258V178.574H169.443V155.891Z" fill="#E6E6E6"/>
<path d="M169.443 181.175H118.594V230.093H169.443V181.175Z" fill="#E6E6E6"/>
<path d="M115.875 181.175H65.0258V230.093H115.875V181.175Z" fill="#E6E6E6"/>
<path d="M104.502 189.811C104.502 191.799 106.113 193.411 108.101 193.411C110.09 193.411 111.701 191.799 111.701 189.811C111.701 187.823 110.09 186.211 108.101 186.211C106.113 186.211 104.502 187.823 104.502 189.811Z" fill="#FAFAFA"/>
<path d="M122.767 189.811C122.767 191.799 124.379 193.411 126.367 193.411C127.322 193.411 128.237 193.032 128.913 192.357C129.588 191.682 129.967 190.766 129.967 189.811C129.967 187.823 128.355 186.211 126.367 186.211C124.379 186.211 122.767 187.823 122.767 189.811Z" fill="#FAFAFA"/>
<path d="M65.9341 251.56H61.885V240.042H70.1795L65.9341 251.56Z" fill="#F0F0F0"/>
<path d="M148.363 167.397C148.363 169.385 149.975 170.997 151.963 170.997C153.951 170.997 155.562 169.385 155.562 167.397C155.562 165.409 153.951 163.797 151.963 163.797C149.975 163.797 148.363 165.409 148.363 167.397V167.397Z" fill="#FAFAFA"/>
<path d="M79.8578 167.397C79.8578 169.385 81.4695 170.997 83.4576 170.997C85.4457 170.997 87.0574 169.385 87.0574 167.397C87.0574 165.409 85.4457 163.797 83.4576 163.797C81.4695 163.797 79.8578 165.409 79.8578 167.397Z" fill="#FAFAFA"/>
<rect x="183.769" y="43.5909" width="115.42" height="95.9157" fill="#EBEBEB"/>
<rect x="185.022" y="43.5909" width="116.849" height="95.9157" fill="#F5F5F5"/>
<rect x="183.769" y="139.506" width="125.22" height="3.17815" fill="#EBEBEB"/>
<rect x="196.937" y="139.506" width="108.877" height="3.17815" fill="#F5F5F5"/>
<path d="M298.115 47.5181V135.579H188.779V47.5181L298.115 47.5181Z" fill="#FAFAFA"/>
<path d="M212.084 135.579L244.156 47.5181H259.296L227.224 135.579H212.084Z" fill="white"/>
<path d="M230.477 135.579L262.55 47.5181H268.451L236.379 135.579H230.477Z" fill="white"/>
<path d="M249.465 135.579L281.537 47.5181H287.439L255.367 135.579H249.465Z" fill="white"/>
<path d="M298.115 47.5181V135.579H297.638V47.5181H298.115Z" fill="#EBEBEB"/>
<path opacity="0.5" d="M302.76 52.0717H187.34L186.996 49.0465H302.418L302.76 52.0717Z" fill="#EBEBEB"/>
<path opacity="0.5" d="M302.76 55.8411H187.34L186.996 52.8159H302.418L302.76 55.8411Z" fill="#EBEBEB"/>
<path opacity="0.5" d="M302.76 59.6126H187.34L186.996 56.5874H302.418L302.76 59.6126Z" fill="#EBEBEB"/>
<path opacity="0.5" d="M302.76 63.3833H187.34L186.996 60.3582H302.418L302.76 63.3833Z" fill="#EBEBEB"/>
<path opacity="0.5" d="M302.76 67.1548H187.34L186.996 64.1296H302.418L302.76 67.1548Z" fill="#EBEBEB"/>
<path opacity="0.5" d="M302.76 70.9263H187.34L186.996 67.9011H302.418L302.76 70.9263Z" fill="#EBEBEB"/>
<path opacity="0.5" d="M302.76 74.6977H187.34L186.996 71.6725H302.418L302.76 74.6977Z" fill="#EBEBEB"/>
<path opacity="0.5" d="M302.76 78.4685H187.34L186.996 75.4434H302.418L302.76 78.4685Z" fill="#EBEBEB"/>
<path opacity="0.5" d="M302.76 82.2399H187.34L186.996 79.2148H302.418L302.76 82.2399Z" fill="#EBEBEB"/>
<path opacity="0.5" d="M302.76 86.0114H187.34L186.996 82.9863H302.418L302.76 86.0114Z" fill="#EBEBEB"/>
<path opacity="0.5" d="M302.76 89.7829H187.34L186.996 86.7578H302.418L302.76 89.7829Z" fill="#EBEBEB"/>
<path opacity="0.5" d="M302.76 93.5557H187.34L186.996 90.5306H302.418L302.76 93.5557Z" fill="#EBEBEB"/>
<path opacity="0.5" d="M302.76 97.3252H187.34L186.996 94.3H302.418L302.76 97.3252Z" fill="#EBEBEB"/>
<path opacity="0.5" d="M302.76 101.097H187.34L186.996 98.0715H302.418L302.76 101.097Z" fill="#EBEBEB"/>
<rect x="278.938" y="174.348" width="64.9514" height="10.5509" transform="rotate(180 278.938 174.348)" fill="#EBEBEB"/>
<path d="M213.988 251.56L220.6 174.347H229.506L216.635 251.56H213.988Z" fill="#E0E0E0"/>
<path d="M278.938 251.56L272.326 174.347H263.421L276.291 251.56H278.938Z" fill="#E0E0E0"/>
<path d="M254.636 251.56L249.157 174.348H240.253L251.989 251.56H254.636Z" fill="#E0E0E0"/>
<path d="M72.7071 136.363C74.5666 136.246 76.2914 135.354 77.461 133.903C78.6305 132.453 79.1371 130.578 78.8572 128.736L74.2589 93.9795C73.7079 90.0197 70.2155 87.1421 66.2235 87.3586C64.3636 87.4753 62.6383 88.3678 61.4683 89.8182C60.2983 91.2687 59.7911 93.1438 60.0706 94.9863L64.6696 129.743C65.2207 133.703 68.7144 136.581 72.7071 136.363Z" fill="#F5F5F5"/>
<path d="M76.7279 133.799C79.4843 134.489 81.9781 132.891 82.291 130.229L85.0549 106.715C85.2454 103.885 83.3779 101.327 80.6247 100.646C77.8649 99.9568 75.3746 101.554 75.0617 104.216L72.2985 127.73C72.107 130.56 73.9746 133.119 76.7279 133.799Z" fill="#F0F0F0"/>
<path d="M71.781 137.383C69.2313 138.072 66.2538 136.474 65.1285 133.812L55.1898 110.298C54.0645 107.636 55.2187 104.919 57.7677 104.229C60.3173 103.54 63.2948 105.137 64.4201 107.799L74.3588 131.314C75.4841 133.972 74.3299 136.689 71.781 137.383Z" fill="#E6E6E6"/>
<path d="M62.6781 152.746H84.3155L88.8283 126.985H58.1639L62.6781 152.746Z" fill="#E6E6E6"/>
<rect x="90.4753" y="130.661" width="33.9548" height="7.35343" transform="rotate(180 90.4753 130.661)" fill="#E0E0E0"/>
<ellipse cx="171.926" cy="274.885" rx="133.85" ry="7.9885" fill="#F5F5F5"/>
<path d="M217.423 269.814L211.878 269.727L212.224 256.893L217.769 256.979L217.423 269.814Z" fill="#E4CBAD"/>
<path d="M211.815 269.091L217.874 269.185C218.096 269.184 218.282 269.351 218.303 269.57L218.831 274.505C218.851 274.757 218.763 275.006 218.59 275.191C218.416 275.375 218.173 275.479 217.919 275.476C215.737 275.407 212.594 275.228 209.848 275.185C206.635 275.135 206.948 275.266 203.181 275.207C200.904 275.172 200.537 272.864 201.514 272.673C205.964 271.794 206.412 271.748 210.429 269.502C210.847 269.246 211.325 269.104 211.815 269.091Z" fill="#263238"/>
<path d="M210.45 104.774C209.688 106.742 208.858 108.519 208 110.357C207.128 112.174 206.211 113.973 205.217 115.742C203.235 119.383 200.911 122.828 198.276 126.033L197.989 126.377C197.832 126.551 197.693 126.714 197.512 126.887C197.133 127.261 196.711 127.59 196.257 127.868C195.733 128.19 195.164 128.435 194.569 128.593C193.962 128.749 193.333 128.809 192.707 128.771C191.696 128.704 190.712 128.414 189.825 127.924C189.171 127.566 188.558 127.138 187.998 126.645C187.092 125.847 186.277 124.951 185.568 123.974C184.922 123.105 184.321 122.204 183.767 121.274C181.715 117.734 180.051 113.985 178.803 110.09L182.615 108.401C183.615 109.986 184.645 111.633 185.721 113.186C186.785 114.752 187.871 116.288 189.013 117.692C189.579 118.395 190.154 119.071 190.744 119.671C191.263 120.217 191.832 120.714 192.442 121.156C192.633 121.294 192.843 121.405 193.065 121.485C193.197 121.524 193.22 121.474 192.99 121.427C192.728 121.402 192.465 121.45 192.229 121.565C192.144 121.612 192.114 121.623 192.107 121.62C192.1 121.616 192.112 121.591 192.119 121.583L192.281 121.348C193.313 119.92 194.26 118.345 195.198 116.764C196.118 115.164 196.994 113.511 197.853 111.843C198.699 110.165 199.524 108.47 200.328 106.756C201.139 105.065 201.916 103.281 202.646 101.64L210.45 104.774Z" fill="#E4CBAD"/>
<path d="M212.623 101.478C214.315 106.553 204.293 120.389 204.293 120.389L193.399 113.575C195.229 109.186 197.542 105.014 200.295 101.132C204.442 95.6047 210.766 95.908 212.623 101.478Z" fill="#263238"/>
<path opacity="0.2" d="M206.366 107.436C204.214 108.366 200.499 115.557 200.981 118.32L204.291 120.388C206.688 117.027 208.822 113.487 210.673 109.8C209.184 108.241 207.504 106.946 206.366 107.436Z" fill="black"/>
<path d="M182.995 109.888L181.964 103.632L175.984 105.691C175.984 105.691 176.133 110.61 180.149 111.515L182.995 109.888Z" fill="#E4CBAD"/>
<path d="M177.914 99.4179L175.629 101.298C175.249 101.611 175.084 102.114 175.204 102.59L175.983 105.692L181.963 103.632L179.854 99.7888C179.67 99.4552 179.347 99.2205 178.972 99.1488C178.596 99.077 178.209 99.1757 177.914 99.4179Z" fill="#E4CBAD"/>
<path opacity="0.2" d="M212.226 256.899L212.047 263.517L217.594 263.604L217.774 256.986L212.226 256.899Z" fill="black"/>
<path d="M237.31 99.2332C232.124 120.25 234.181 142.558 233.813 147.071L204.085 146.588C201.359 114.126 206.162 97.2039 206.162 97.2039C206.162 97.2039 208.054 96.8351 210.636 96.5704C211.446 96.487 212.32 96.4139 213.231 96.3636C213.734 96.334 214.246 96.3174 214.765 96.3071C218.993 96.3789 223.213 96.6912 227.404 97.2425C228.198 97.3403 229.007 97.4582 229.789 97.5871C230.516 97.7098 231.229 97.8408 231.901 97.9731C234.95 98.5783 237.31 99.2332 237.31 99.2332Z" fill="#263238"/>
<path opacity="0.2" d="M231.329 108.249C230.874 110.283 231.836 119.561 234.056 121.849C234.234 118.878 234.503 115.776 234.895 112.606L231.329 108.249Z" fill="black"/>
<path d="M226.67 83.0291C225.724 87.007 224.658 94.344 227.403 97.2473C225.113 99.2649 222.132 101.571 217.295 101.383C212.457 101.195 213.425 97.96 214.763 96.3147C219.337 95.5744 219.343 92.2264 218.667 89.0315L226.67 83.0291Z" fill="#E4CBAD"/>
<path d="M227.138 96.7131C226.62 97.4451 224.438 99.6385 216.226 101.278C217.425 102.132 218.665 104.184 219.304 105.345C219.562 105.823 220.136 106.035 220.645 105.842C223.004 104.896 229.157 101.981 228.89 97.3865C228.88 97.2319 228.794 97.0924 228.659 97.015C228.327 96.8337 227.98 96.6837 227.62 96.5669C227.445 96.5021 227.248 96.5619 227.138 96.7131Z" fill="white"/>
<path d="M212.677 104.161C213.592 102.913 214.815 101.921 216.226 101.279C214.95 100.041 214.408 98.2333 214.795 96.5014C214.832 96.3589 214.798 96.2072 214.704 96.0941C214.609 95.981 214.465 95.9204 214.317 95.9314C214.053 95.958 213.79 96.002 213.531 96.063C213.471 96.0765 213.416 96.1029 213.368 96.1402C212.744 96.6152 208.465 100.111 211.181 104.077C211.343 104.323 211.613 104.478 211.908 104.494C212.203 104.511 212.488 104.387 212.677 104.161Z" fill="white"/>
<path opacity="0.2" d="M223.409 85.4781L218.674 89.0281C218.843 89.7697 218.946 90.5246 218.983 91.2841C220.724 91.1635 223.173 89.4513 223.423 87.6646C223.551 86.941 223.547 86.2001 223.409 85.4781V85.4781Z" fill="black"/>
<path d="M213.733 81.1686C211.399 80.6861 211.155 74.075 212.246 72.4379C210.73 72.4565 208.365 70.5609 207.826 68.8191C209.48 68.8763 211.864 67.9381 212.246 67.2419C210.615 66.4637 208.115 64.1277 207.826 62.1556C211.968 64.1663 215.134 64.3 216.577 64.1277C216.577 64.1277 215.192 62.7877 215.442 61.1788C218.837 63.0165 222.656 63.9373 226.519 63.8499C230.189 63.7244 232.089 66.6933 230.674 68.8763C233.991 68.7901 231.682 78.1247 228.509 80.1064C225.51 81.6856 220.108 82.49 213.733 81.1686Z" fill="#263238"/>
<path d="M228.016 76.9901C227.321 82.4308 227.191 85.6532 224.232 88.2533C219.782 92.1637 213.165 89.159 212.212 83.606C211.355 78.6079 212.637 70.5499 218.157 68.7729C220.642 67.9722 223.366 68.4993 225.368 70.1683C227.371 71.8374 228.371 74.414 228.016 76.9901Z" fill="#E4CBAD"/>
<path d="M226.462 69.3932C226.462 69.3932 223.029 70.7146 223.981 74.1894C224.933 77.6642 224.789 79.2158 224.298 80.2498C224.645 81.3409 227.501 81.8352 227.501 81.8352C227.501 81.8352 229.895 76.7895 230.241 73.9537C230.587 71.1179 226.462 69.3932 226.462 69.3932Z" fill="#263238"/>
<path d="M229.178 68.595C230.541 68.8425 232.548 66.5788 232.719 64.7349C232.719 64.7384 233.568 71.4067 229.178 68.595Z" fill="#263238"/>
<path d="M228.782 68.0877C229.474 71.0303 222.279 72.5523 212.932 72.3228C212.932 72.3228 212.875 68.7611 215.701 67.3543C218.528 65.9474 227.888 64.2676 228.782 68.0877Z" fill="#263238"/>
<path d="M230.266 82.5355C229.531 83.7005 228.36 84.5255 227.012 84.8274C225.217 85.2141 224.413 83.5867 224.989 81.9586C225.507 80.491 227.066 78.5217 228.83 78.8663C229.609 79.0319 230.252 79.5765 230.541 80.3155C230.83 81.0545 230.727 81.8888 230.266 82.5355Z" fill="#E4CBAD"/>
<path d="M221.319 201.513C221.094 173.688 227.28 146.967 227.28 146.967L204.104 146.595C204.104 146.595 206.769 186.782 207.696 203.614C208.657 221.116 210.005 262.205 210.005 262.205L219.415 262.348C219.415 262.348 222.616 223.472 221.319 201.513Z" fill="#9D6A3B"/>
<path opacity="0.2" d="M222.238 162.277C215.633 171.279 218.603 188.215 221.31 200.182C221.416 186.984 222.543 173.813 224.681 160.788L222.238 162.277Z" fill="#E4CBAD"/>
<path d="M209.421 262.404L220.608 262.576L221.24 258.969L208.77 258.584L209.421 262.404Z" fill="#263238"/>
<path d="M220.706 77.9013C220.677 78.3459 220.416 78.6892 220.124 78.6678C219.832 78.6465 219.618 78.268 219.647 77.8227C219.676 77.3775 219.937 77.0342 220.229 77.0562C220.522 77.0783 220.736 77.456 220.706 77.9013Z" fill="#263238"/>
<path d="M214.527 77.5264C214.497 77.9717 214.236 78.3149 213.944 78.2936C213.652 78.2722 213.439 77.8931 213.468 77.4485C213.497 77.0039 213.758 76.6599 214.05 76.682C214.342 76.704 214.556 77.0845 214.527 77.5264Z" fill="#263238"/>
<path d="M216.12 77.8669C215.497 79.1869 214.694 80.4147 213.733 81.5154C214.32 82.0007 215.092 82.2044 215.843 82.0723L216.12 77.8669Z" fill="#CEA677"/>
<path d="M217.65 83.4026C218.664 83.3599 219.615 82.8992 220.274 82.1309C220.317 82.0729 220.305 81.9911 220.247 81.9475C220.19 81.904 220.107 81.9147 220.063 81.9716C219.315 82.8118 218.208 83.2449 217.085 83.1366C217.014 83.1318 216.952 83.1858 216.947 83.2572C216.944 83.3285 216.998 83.3895 217.07 83.3951C217.263 83.4104 217.457 83.413 217.65 83.4026Z" fill="#263238"/>
<path d="M221.623 75.5928C221.668 75.5903 221.712 75.576 221.749 75.5515C221.808 75.5135 221.848 75.4538 221.863 75.3858C221.877 75.3178 221.863 75.2469 221.825 75.1889C221.376 74.4687 220.606 74.0081 219.757 73.9516C219.687 73.9512 219.62 73.9787 219.571 74.0278C219.522 74.0768 219.494 74.1435 219.495 74.2128C219.496 74.3573 219.613 74.4743 219.758 74.4762C220.429 74.531 221.034 74.9016 221.385 75.4736C221.437 75.5531 221.528 75.5986 221.623 75.5928Z" fill="#263238"/>
<path d="M212.497 75.271C212.585 75.2762 212.669 75.2368 212.722 75.1662C213.102 74.6178 213.725 74.2866 214.394 74.2777C214.464 74.282 214.533 74.2583 214.585 74.212C214.637 74.1656 214.668 74.1004 214.671 74.0309C214.678 73.8871 214.568 73.7644 214.423 73.7552C213.577 73.7541 212.784 74.1643 212.299 74.8539C212.213 74.971 212.238 75.1351 212.356 75.2206C212.397 75.2508 212.446 75.2683 212.497 75.271Z" fill="#263238"/>
<path fill-rule="evenodd" clip-rule="evenodd" d="M210.896 269.479C210.889 269.528 210.854 269.568 210.807 269.583L210.788 269.585C209.891 269.749 208.294 269.942 207.694 269.395C207.514 269.233 207.425 268.993 207.458 268.753C207.466 268.608 207.551 268.477 207.681 268.409C208.362 268.045 210.577 269.207 210.827 269.341C210.878 269.368 210.906 269.423 210.896 269.479ZM210.354 269.391C209.479 268.959 208.276 268.48 207.855 268.618V268.622C207.838 268.626 207.822 268.632 207.807 268.639C207.755 268.666 207.722 268.719 207.721 268.777C207.698 268.935 207.755 269.093 207.873 269.201C208.207 269.508 209.123 269.575 210.354 269.391Z" fill="#9D6A3B"/>
<path fill-rule="evenodd" clip-rule="evenodd" d="M210.841 269.566C210.831 269.574 210.819 269.579 210.807 269.583C210.774 269.595 210.739 269.592 210.707 269.577C210.042 269.267 208.733 268.05 208.845 267.426C208.871 267.28 208.979 267.098 209.341 267.067C209.606 267.043 209.868 267.129 210.067 267.304C210.762 267.888 210.89 269.363 210.898 269.447C210.898 269.447 210.898 269.448 210.898 269.448C210.902 269.495 210.88 269.54 210.841 269.566ZM209.366 267.329C209.321 267.332 209.275 267.34 209.231 267.353C209.122 267.389 209.111 267.449 209.107 267.472C209.04 267.846 209.927 268.801 210.605 269.221C210.553 268.59 210.307 267.99 209.899 267.504C209.754 267.374 209.561 267.31 209.366 267.329Z" fill="#9D6A3B"/>
<path d="M248.59 269.814L243.03 269.727L241.195 256.893L246.756 256.979L248.59 269.814Z" fill="#E4CBAD"/>
<path d="M242.747 269.091L248.806 269.185C249.027 269.183 249.213 269.351 249.234 269.57L249.762 274.505C249.782 274.757 249.695 275.006 249.521 275.191C249.348 275.375 249.105 275.479 248.851 275.476C246.669 275.407 245.983 275.228 243.236 275.185C240.024 275.135 241.505 275.266 237.74 275.207C235.462 275.172 235.097 272.876 236.073 272.673C239.159 272.029 239.969 270.805 241.361 269.502C241.753 269.194 242.249 269.046 242.747 269.091Z" fill="#263238"/>
<path opacity="0.2" d="M241.197 256.899L242.142 263.517L247.705 263.604L246.76 256.986L241.197 256.899Z" fill="black"/>
<path d="M240.691 200.814C237.536 175.946 237.558 152.624 233.813 147.07L214.169 146.754C214.169 146.754 224.246 186.072 228.079 202.637C232.064 219.861 239.63 260.564 239.63 260.564L248.59 260.691C248.59 260.691 246.571 220.055 240.691 200.814Z" fill="#BD8958"/>
<path d="M238.393 262.404L249.577 262.579L250.209 258.973L237.74 258.588L238.393 262.404Z" fill="#263238"/>
<path fill-rule="evenodd" clip-rule="evenodd" d="M243.964 269.44C243.941 269.484 243.894 269.51 243.845 269.509L243.827 269.506C242.927 269.352 241.364 268.988 240.988 268.269C240.875 268.056 240.875 267.8 240.988 267.586C241.046 267.452 241.171 267.357 241.316 267.338C242.078 267.229 243.758 269.078 243.947 269.29C243.985 269.331 243.992 269.392 243.964 269.44ZM243.484 269.177C242.812 268.472 241.847 267.611 241.403 267.597C241.386 267.596 241.368 267.597 241.351 267.599C241.293 267.606 241.243 267.645 241.223 267.7C241.147 267.84 241.145 268.008 241.219 268.15C241.43 268.556 242.265 268.929 243.484 269.177Z" fill="#9D6A3B"/>
<path fill-rule="evenodd" clip-rule="evenodd" d="M243.882 269.505C243.87 269.508 243.857 269.51 243.845 269.509C243.811 269.508 243.779 269.494 243.756 269.47C243.238 268.95 242.428 267.361 242.748 266.813C242.824 266.685 242.987 266.551 243.338 266.646C243.595 266.714 243.812 266.884 243.938 267.116C244.391 267.908 243.993 269.352 243.976 269.413C243.963 269.458 243.928 269.493 243.882 269.505ZM243.272 266.899C243.227 266.886 243.18 266.878 243.133 266.876C243.018 266.873 242.988 266.925 242.977 266.943C242.785 267.271 243.29 268.471 243.781 269.097C243.95 268.487 243.926 267.84 243.712 267.244C243.62 267.073 243.46 266.948 243.272 266.899Z" fill="#9D6A3B"/>
<path d="M238.845 102.5C240.776 105.946 242.519 109.383 244.198 112.917C245.845 116.46 247.415 120.043 248.787 123.791C249.126 124.729 249.456 125.676 249.764 126.647L250.007 127.398C250.126 127.79 250.218 128.189 250.284 128.593C250.41 129.372 250.436 130.163 250.359 130.947C250.209 132.315 249.817 133.645 249.201 134.876C248.676 135.935 248.039 136.934 247.3 137.858C245.967 139.53 244.441 141.04 242.754 142.357C241.95 143.006 241.116 143.602 240.261 144.165C239.407 144.729 238.576 145.257 237.614 145.773L235.191 142.395C235.785 141.78 236.459 141.097 237.068 140.429C237.684 139.75 238.278 139.058 238.855 138.371C239.967 137.057 240.961 135.649 241.825 134.162C242.603 132.775 243.085 131.343 242.987 130.514C242.975 130.341 242.941 130.17 242.885 130.006C242.861 129.939 242.832 129.875 242.799 129.812L242.553 129.21C242.22 128.373 241.857 127.532 241.483 126.69C240.003 123.312 238.325 119.934 236.631 116.575C234.936 113.215 233.179 109.82 231.448 106.521L238.845 102.5Z" fill="#E4CBAD"/>
<path d="M237.309 99.2339C242.44 100.815 246.688 114.156 246.688 114.156L235.517 120.388C233.423 116.476 231.581 112.435 230.001 108.29C227.356 101.229 231.094 97.319 237.309 99.2339Z" fill="#263238"/>
<path d="M236.848 141.547L231.596 143.546L235.674 148.894C235.674 148.894 240.209 146.508 239.325 143.904L236.848 141.547Z" fill="#E4CBAD"/>
<path d="M229.173 148.841L230.919 150.475C231.615 151.126 232.681 151.179 233.439 150.601L235.674 148.897L231.596 143.55L229.115 146.069C228.748 146.442 228.548 146.946 228.559 147.467C228.569 147.989 228.791 148.484 229.173 148.841Z" fill="#E4CBAD"/>
<rect x="124.314" y="70.5826" width="5.9618" height="0.688037" fill="#9D6A3B"/>
<rect x="104.251" y="70.5826" width="13.2987" height="0.688037" fill="#9D6A3B"/>
<path d="M176.631 239.796H97.5404C92.7456 239.715 88.7915 236.014 88.3917 231.234L78.0887 81.552C77.9061 79.333 78.6665 77.1398 80.1834 75.5105C81.7003 73.8811 83.8333 72.9664 86.0591 72.9907H165.15C169.945 73.0719 173.899 76.7721 174.299 81.552L184.602 231.234C184.785 233.454 184.025 235.647 182.508 237.276C180.991 238.906 178.857 239.82 176.631 239.796Z" fill="white"/>
<path fill-rule="evenodd" clip-rule="evenodd" d="M86.0584 72.99H165.15L165.149 72.9907C169.944 73.0719 173.898 76.7721 174.298 81.552L184.602 231.234C184.785 233.454 184.025 235.647 182.508 237.276C180.991 238.906 178.857 239.82 176.631 239.796H97.5404C92.7456 239.715 88.7915 236.014 88.3917 231.234L78.0887 81.552C77.9059 79.3331 78.6661 77.1398 80.1829 75.5103C81.6997 73.8808 83.8326 72.9659 86.0584 72.99ZM173.611 81.5988C173.248 77.1744 169.588 73.7478 165.15 73.6788V73.6781H86.0619C84.0316 73.6551 82.085 74.4856 80.6964 75.9672C79.309 77.4621 78.612 79.4706 78.7752 81.5038L89.0796 231.188C89.4419 235.612 93.1027 239.039 97.5404 239.108H176.631C178.66 239.13 180.605 238.299 181.993 236.819C183.381 235.324 184.078 233.315 183.915 231.282L173.611 81.5988Z" fill="#9D6A3B"/>
<path d="M179.917 239.796H100.826C96.0317 239.714 92.0778 236.014 91.6776 231.234L81.3754 81.5519C81.1927 79.3332 81.9531 77.1401 83.4698 75.5107C84.9866 73.8814 87.1194 72.9665 89.3451 72.9907H168.437C173.232 73.0722 177.186 76.7722 177.586 81.5519L187.887 231.234C188.07 233.453 187.309 235.646 185.793 237.276C184.276 238.905 182.143 239.82 179.917 239.796Z" fill="#9D6A3B"/>
<path d="M152.394 143.794H117.07C115.411 143.77 114.004 142.569 113.717 140.935L109.914 118.27C109.748 117.405 109.979 116.512 110.545 115.836C111.11 115.161 111.949 114.775 112.829 114.786H152.642C154.541 114.811 156.061 116.371 156.036 118.27L155.353 140.935C155.322 142.54 153.999 143.818 152.394 143.794Z" fill="white"/>
<path fill-rule="evenodd" clip-rule="evenodd" d="M117.069 144.825H152.394C154.553 144.839 156.327 143.123 156.385 140.964L157.068 118.3C157.094 117.112 156.64 115.964 155.809 115.114C154.979 114.253 153.837 113.762 152.641 113.753H112.829C111.655 113.745 110.537 114.256 109.774 115.149C109.01 116.063 108.689 117.268 108.896 118.441L112.7 141.105C113.068 143.237 114.906 144.802 117.069 144.825ZM111.349 116.483C111.718 116.052 112.261 115.808 112.829 115.818L152.64 115.816C153.278 115.825 153.886 116.089 154.326 116.551C154.77 116.999 155.014 117.607 155.004 118.237L154.32 140.901C154.311 141.403 154.103 141.881 153.742 142.229C153.381 142.578 152.896 142.768 152.394 142.759H117.069C115.917 142.732 114.942 141.898 114.735 140.764L110.931 118.1C110.822 117.526 110.975 116.933 111.349 116.483Z" fill="white"/>
<path d="M155.353 141.966H155.322C154.752 141.949 154.305 141.474 154.322 140.904L155.361 106.441C155.372 106.063 155.59 105.721 155.927 105.551C156.265 105.38 156.669 105.408 156.98 105.624L163.183 109.916C163.651 110.241 163.768 110.883 163.444 111.352C163.12 111.821 162.477 111.938 162.009 111.614L157.363 108.401L156.381 140.965C156.364 141.522 155.91 141.964 155.353 141.966Z" fill="white"/>
<ellipse cx="125.492" cy="154.337" rx="5.64947" ry="6.05257" transform="rotate(-45.9724 125.492 154.337)" fill="white"/>
<path fill-rule="evenodd" clip-rule="evenodd" d="M119.197 154.367C119.485 157.868 122.383 160.579 125.895 160.633C127.537 160.651 129.111 159.98 130.236 158.783C131.357 157.574 131.92 155.949 131.788 154.305C131.501 150.803 128.603 148.09 125.09 148.037C123.448 148.019 121.873 148.691 120.749 149.888C119.627 151.098 119.064 152.722 119.197 154.367ZM121.407 150.501C122.361 149.487 123.697 148.919 125.09 148.936C128.133 148.983 130.643 151.333 130.891 154.367C131.004 155.762 130.528 157.14 129.578 158.168C128.624 159.182 127.288 159.75 125.895 159.732C122.853 159.686 120.343 157.337 120.094 154.304C119.98 152.908 120.456 151.528 121.407 150.501Z" fill="white"/>
<ellipse cx="144.797" cy="154.337" rx="5.64947" ry="6.05257" transform="rotate(-45.9724 144.797 154.337)" fill="white"/>
<path fill-rule="evenodd" clip-rule="evenodd" d="M138.501 154.367C138.789 157.868 141.687 160.579 145.199 160.633C146.841 160.651 148.416 159.98 149.54 158.783C150.662 157.574 151.225 155.949 151.093 154.305C150.806 150.803 147.907 148.09 144.394 148.037C142.752 148.019 141.178 148.691 140.054 149.888C138.932 151.098 138.369 152.722 138.501 154.367ZM140.711 150.501C141.666 149.487 143.002 148.919 144.394 148.936C147.437 148.983 149.947 151.333 150.195 154.367C150.309 155.762 149.833 157.14 148.883 158.168C147.928 159.182 146.592 159.75 145.199 159.732C142.157 159.686 139.647 157.337 139.399 154.304C139.285 152.908 139.761 151.529 140.711 150.501Z" fill="white"/>
<ellipse cx="131.833" cy="106.22" rx="13.9882" ry="14.9849" transform="rotate(-45.9724 131.833 106.22)" fill="#DEAA79"/>
<path fill-rule="evenodd" clip-rule="evenodd" d="M119.687 106.255C120.243 113.022 125.844 118.262 132.631 118.365C135.793 118.401 138.826 117.11 140.991 114.805C143.151 112.474 144.234 109.345 143.978 106.177C143.422 99.4107 137.822 94.1712 131.034 94.068C127.872 94.0321 124.84 95.3242 122.675 97.63C120.516 99.9596 119.432 103.088 119.687 106.255ZM123.481 98.3806C125.438 96.2987 128.178 95.1334 131.034 95.1682C137.245 95.2631 142.37 100.058 142.878 106.25C143.112 109.112 142.134 111.941 140.184 114.048C138.228 116.131 135.488 117.297 132.631 117.263C126.419 117.168 121.294 112.371 120.786 106.178C120.553 103.316 121.531 100.488 123.481 98.3806Z" fill="white"/>
<path fill-rule="evenodd" clip-rule="evenodd" d="M134.462 230.172C134.701 233.098 137.123 235.364 140.058 235.409C141.423 235.424 142.732 234.866 143.666 233.871C144.598 232.865 145.066 231.515 144.956 230.148C144.715 227.222 142.294 224.956 139.359 224.912C137.994 224.897 136.685 225.454 135.751 226.449C134.819 227.455 134.352 228.805 134.462 230.172ZM136.002 226.684C136.872 225.759 138.09 225.241 139.359 225.256C142.114 225.298 144.387 227.425 144.612 230.172C144.716 231.444 144.282 232.7 143.415 233.636C142.545 234.561 141.327 235.08 140.058 235.065C137.303 235.023 135.03 232.895 134.805 230.148C134.701 228.877 135.135 227.62 136.002 226.684Z" fill="white"/>
<g opacity="0.2">
<path d="M98.5033 219.654C96.019 219.616 93.9692 217.698 93.7659 215.221L84.8057 85.0442C84.7088 83.8946 85.1018 82.7575 85.8877 81.9131C86.6737 81.0688 87.7796 80.5957 88.9329 80.6104H168.025C170.509 80.6486 172.559 82.5671 172.761 85.0442L181.722 215.221C181.819 216.37 181.427 217.508 180.64 218.352C179.854 219.196 178.748 219.669 177.595 219.654H98.5033Z" fill="white"/>
<path fill-rule="evenodd" clip-rule="evenodd" d="M207.219 139.387H286.311C287.508 139.4 288.657 138.91 289.476 138.036C290.294 137.154 290.705 135.97 290.609 134.77L281.649 4.59358C281.438 2.0274 279.314 0.0401182 276.741 0.000247077H197.648C196.45 -0.0126202 195.302 0.4776 194.483 1.35155C193.665 2.23362 193.254 3.41833 193.35 4.61767L202.311 134.794C202.521 137.361 204.645 139.348 207.219 139.387ZM194.735 1.58342C195.49 0.779438 196.547 0.328911 197.649 0.341514L276.741 0.344266C279.135 0.381277 281.11 2.23037 281.305 4.61767L290.266 134.794C290.355 135.898 289.977 136.989 289.225 137.802C288.47 138.604 287.413 139.053 286.311 139.04H207.219C204.825 139.004 202.849 137.155 202.654 134.767L193.694 4.59083C193.604 3.48667 193.982 2.39559 194.735 1.58342Z" fill="white"/>
</g>
</svg>
