<svg width="269" height="255" viewBox="0 0 269 255" fill="none" xmlns="http://www.w3.org/2000/svg">
<path d="M124.085 0.0181746C75.9919 -0.715348 39.8296 20.9541 32.4821 28.9006C30.1442 32.1098 22.8893 40.8204 27.0471 55.4908C31.7882 72.2192 37.3778 72.912 22.9999 88.9578C6.87121 106.957 -15.1099 141.68 14.9482 185.233C45.0063 228.786 118.849 232.096 157.8 229.244C195.372 226.493 241.632 208.521 259.496 186.15C278.533 162.31 264.986 124.687 253.409 106.837C241.812 88.9578 268.013 52.7401 244.467 33.0267C220.922 13.3133 184.201 0.935078 124.085 0.0181746Z" fill="#CEAE91" fill-opacity="0.25"/>
<path d="M131.299 141.715C132.613 141.573 133.771 141.454 134.913 141.32C138.123 140.939 141.333 140.916 144.551 141.14C149.083 141.461 153.562 142.171 157.989 143.179C158.116 143.208 158.251 143.231 158.378 143.261C158.699 143.35 158.848 143.223 158.938 142.902C159.177 142.066 159.46 141.245 159.729 140.416C161.976 133.533 166.538 128.792 173.078 125.813C177.318 123.88 181.738 123.245 186.345 123.559C187.211 123.618 188.062 123.738 188.958 123.917C189.062 122.834 189.189 121.789 189.256 120.744C189.547 116.257 190.802 112.039 192.728 108C193.191 107.022 193.624 106.036 193.997 105.014C195.236 101.587 195.154 98.1749 193.818 94.8153C193.011 92.7921 191.6 91.1795 190.04 89.7012C187.494 87.2973 184.359 86.0206 181.089 85.0127C178.379 84.1766 175.586 83.7809 172.787 83.4449C170.144 83.1314 167.501 82.8029 164.851 82.5565C162.775 82.3624 160.692 82.2355 158.617 82.1757C153.868 82.0339 149.12 82.0339 144.372 82.1832C141.124 82.2803 137.884 82.5117 134.749 83.43C132.359 84.1318 130.045 85.0351 128.171 86.7523C124.804 89.8207 123.139 93.6357 123.236 98.2122C123.311 101.736 124.214 105.088 125.289 108.41C125.999 110.62 126.85 112.778 127.342 115.055C127.686 116.653 127.999 118.258 128.082 119.893C128.097 120.154 128.097 120.423 128.074 120.684C128.044 121.043 127.85 121.274 127.477 121.311C127.111 121.349 126.835 121.147 126.768 120.729C126.671 120.102 126.648 119.467 126.551 118.84C126.133 116.093 125.401 113.427 124.476 110.814C123.401 107.776 122.475 104.7 121.967 101.512C121.243 96.9804 121.795 92.6801 124.386 88.768C126.014 86.3043 128.156 84.4752 130.844 83.2359C133.86 81.8472 137.033 81.1604 140.318 80.8991C146.664 80.3914 153.025 80.4885 159.378 80.6826C165.291 80.8618 171.152 81.6233 176.997 82.4893C180.379 82.9895 183.62 84.0347 186.688 85.5353C189.794 87.0584 192.287 89.3056 194.169 92.1873C195.99 94.9795 196.603 98.1002 196.364 101.408C196.214 103.573 195.527 105.581 194.646 107.544C194.139 108.672 193.654 109.814 193.153 110.949C191.683 114.249 191.07 117.735 190.764 121.304C190.69 122.17 190.652 123.043 190.57 123.909C190.533 124.313 190.667 124.529 191.055 124.678C191.892 124.999 192.661 125.47 193.415 125.955C196.028 127.635 198.245 131.719 196.528 136.026C195.901 137.609 194.99 139.028 193.84 140.289C193.586 140.573 193.437 140.879 193.318 141.238C192.295 144.313 191.242 147.382 190.212 150.45C188.719 154.9 187.136 159.32 185.941 163.859C185.255 166.487 184.665 169.137 184.15 171.802C183.62 174.565 183.746 177.297 184.314 180.045C184.904 182.912 185.367 185.801 185.523 188.735C185.561 189.496 185.561 190.265 185.367 191.019C185.15 191.848 184.799 192.587 183.881 192.789C182.955 192.998 182.246 192.535 181.663 191.863C181.23 191.355 180.954 190.758 180.738 190.131C180.058 188.205 179.73 186.204 179.357 184.211C179.222 183.486 179.095 182.755 178.834 182.06C178.528 181.232 178.162 181.045 177.311 181.269C176.721 181.426 176.176 181.702 175.654 182.008C172.705 183.71 169.644 185.181 166.493 186.473C166.277 186.562 166.06 186.674 165.814 186.667C165.522 186.659 165.313 186.532 165.194 186.264C165.075 185.987 165.149 185.734 165.358 185.547C165.515 185.413 165.702 185.308 165.896 185.226C169.128 183.8 172.257 182.157 175.347 180.44C175.9 180.134 176.482 179.888 177.102 179.739C178.498 179.41 179.543 179.918 180.14 181.217C180.581 182.187 180.738 183.233 180.924 184.27C181.23 185.928 181.522 187.593 182.037 189.205C182.194 189.705 182.373 190.206 182.664 190.654C182.813 190.878 182.97 191.087 183.216 191.206C183.44 191.318 183.627 191.281 183.739 191.042C183.888 190.728 183.941 190.392 183.963 190.041C184.053 188.638 183.888 187.249 183.709 185.861C183.41 183.531 183.007 181.217 182.552 178.917C182.089 176.581 182.186 174.251 182.582 171.922C183.679 165.539 185.523 159.357 187.644 153.243C188.704 150.182 189.734 147.106 190.779 144.037C190.861 143.798 190.936 143.559 191.018 143.32C190.831 143.261 190.757 143.335 190.675 143.403C187.659 145.635 184.291 147.188 180.82 148.547C179.566 149.039 178.289 149.465 176.982 149.771C176.46 149.89 176.206 150.144 176.064 150.674C174.153 157.722 171.973 164.695 169.838 171.676C169.375 173.191 168.837 174.677 168.218 176.133C167.06 178.865 165.351 181.157 162.887 182.859C162.32 183.247 161.767 183.658 161.282 184.143C160.834 184.599 160.453 185.099 160.229 185.711C160.065 186.167 160.125 186.256 160.61 186.316C161.267 186.398 161.909 186.54 162.521 186.794C164.014 187.413 164.813 188.518 164.821 190.153C164.828 191.258 164.828 192.371 164.821 193.476C164.791 196.432 164.589 199.381 164.164 202.308C164.074 202.935 163.94 203.554 163.671 204.129C163.081 205.369 161.834 205.458 161.058 204.323C160.752 203.883 160.61 203.375 160.498 202.853C160.125 201.143 160.02 199.403 159.908 197.671C159.707 194.566 159.415 191.467 159.065 188.376C159.005 187.817 158.997 187.802 158.43 187.854C156.802 188.011 155.197 188.332 153.585 188.6C150.113 189.175 146.619 189.369 143.103 189.235C141.625 189.175 140.154 189.108 138.676 189.063C136.063 188.974 133.479 188.608 130.896 188.197C127.305 187.63 123.707 187.062 120.175 186.196C116.465 185.293 112.777 184.278 109.193 182.941C108.476 182.673 108.574 182.576 108.193 183.322C107.088 185.51 106.02 187.719 104.93 189.914C104.236 191.311 103.482 192.669 102.676 193.998C102.25 194.7 101.802 195.387 101.197 195.947C100.66 196.447 100.048 196.835 99.2711 196.499C98.4723 196.148 98.3006 195.447 98.323 194.663C98.3454 193.729 98.5694 192.834 98.868 191.96C99.8385 189.116 101.018 186.346 102.138 183.561C102.608 182.389 103.086 181.217 103.504 180.022C104.311 177.708 104.333 175.379 103.773 173.012C103.168 170.496 102.302 168.062 101.556 165.591C100.608 162.433 99.8087 159.238 99.3533 155.968C99.1591 154.556 99.0322 153.138 98.9874 151.712C98.9202 149.651 98.4947 147.703 97.5839 145.836C96.7776 144.179 95.9787 142.514 95.5532 140.7C95.1575 138.99 95.053 137.273 95.2769 135.519C95.7772 131.502 98.9277 129.262 102.205 128.926C102.698 128.874 103.109 128.732 103.504 128.449C107.603 125.567 112.127 123.715 117.084 122.946C119.227 122.61 121.385 122.476 123.55 122.722C127.425 123.17 130.112 125.253 131.747 128.747C132.904 131.204 133.166 133.802 132.912 136.474C132.71 138.251 132.255 139.968 131.299 141.715ZM176.788 148.166C177.057 148.203 177.229 148.136 177.408 148.091C178.737 147.748 180.014 147.255 181.283 146.732C185.202 145.12 188.965 143.246 191.974 140.133C193.25 138.804 194.318 137.348 195.035 135.653C196.364 132.495 195.274 128.986 192.407 127.105C191.003 126.179 189.48 125.5 187.823 125.246C185.202 124.85 182.567 124.917 179.939 125.291C177.079 125.694 174.437 126.717 171.913 128.075C167.449 130.472 164.059 133.891 162.043 138.602C160.856 141.379 160.035 144.261 159.393 147.203C158.4 151.764 157.422 156.326 156.086 160.798C155.526 162.672 154.846 164.501 153.958 166.24C151.95 170.16 148.829 172.668 144.491 173.587C142.834 173.938 141.147 174.057 139.459 174.079C134.405 174.139 129.403 173.676 124.446 172.691C121.9 172.183 119.436 171.414 117.152 170.175C114.188 168.562 111.97 166.285 111.015 162.97C110.432 160.97 110.074 158.909 109.977 156.819C109.82 153.369 109.604 149.92 109.641 146.456C109.641 146.284 109.708 146.09 109.522 145.911C109.305 145.911 109.171 146.09 108.999 146.195C108.439 146.546 107.834 146.807 107.17 146.912C105.483 147.165 103.967 146.695 102.631 145.71C97.8676 142.216 97.4346 135.437 100.272 131.398C100.369 131.263 100.548 131.159 100.473 130.868C98.7635 131.607 97.5391 132.749 97.0239 134.541C96.5013 136.355 96.576 138.191 96.9567 140.021C97.3226 141.797 98.0915 143.418 98.8904 145.023C99.958 147.173 100.443 149.435 100.503 151.809C100.54 153.257 100.69 154.706 100.906 156.139C101.384 159.297 102.168 162.388 103.101 165.442C103.87 167.965 104.781 170.444 105.318 173.027C105.617 174.453 105.781 175.886 105.625 177.35C105.438 179.104 104.87 180.739 104.236 182.359C103.086 185.278 101.914 188.182 100.757 191.101C100.413 191.96 100.122 192.834 99.9505 193.744C99.8833 194.11 99.7863 194.483 99.9281 194.879C100.286 194.737 100.428 194.469 100.608 194.245C101.197 193.498 101.66 192.662 102.131 191.841C103.556 189.34 104.751 186.727 106.02 184.143C106.401 183.359 106.804 182.59 107.222 181.829C107.648 181.06 108.006 180.955 108.857 181.269C109.402 181.471 109.947 181.672 110.492 181.851C113.426 182.814 116.383 183.68 119.384 184.382C126.76 186.099 134.204 187.436 141.811 187.637C144.85 187.719 147.881 187.772 150.897 187.384C153.383 187.062 155.847 186.644 158.325 186.286C158.617 186.241 158.721 186.107 158.773 185.838C158.997 184.591 159.699 183.621 160.595 182.762C161.155 182.232 161.767 181.777 162.387 181.329C164.238 179.97 165.59 178.208 166.553 176.14C167.292 174.557 167.874 172.922 168.382 171.257C170.226 165.21 172.122 159.17 173.824 153.078C174.071 152.19 174.325 151.309 174.578 150.406C174.16 150.271 173.802 150.383 173.444 150.428C171.995 150.615 170.539 150.704 169.114 150.338C165.59 149.427 163.693 147.427 163.283 144.254C162.939 141.573 163.238 138.916 164.432 136.452C165.724 133.772 167.792 132.107 170.883 131.92C175.116 131.666 177.214 134.227 177.863 137.012C178.043 137.781 178.11 138.572 178.125 139.364C178.177 141.947 177.639 144.448 177.042 146.934C176.93 147.352 176.766 147.718 176.788 148.166ZM158.408 144.709C158.094 144.634 157.84 144.575 157.586 144.522C154.973 144.015 152.345 143.604 149.717 143.201C143.595 142.26 137.481 142.305 131.367 143.261C131.001 143.32 130.747 143.455 130.523 143.761C128.791 146.075 126.76 148.099 124.416 149.801C122.505 151.182 120.496 152.376 118.249 153.123C117.592 153.34 116.92 153.452 116.226 153.407C114.807 153.31 114.053 152.235 114.457 150.868C114.591 150.405 114.83 149.995 115.121 149.614C115.718 148.83 116.435 148.181 117.226 147.598C120.631 145.105 124.446 143.477 128.5 142.395C129.246 142.193 129.664 141.82 130.008 141.178C131.202 138.968 131.464 136.579 131.419 134.123C131.389 132.443 131.023 130.83 130.299 129.307C129 126.582 126.954 124.805 123.916 124.313C122.37 124.059 120.817 124.081 119.264 124.223C114.367 124.656 109.843 126.172 105.692 128.814C105.55 128.904 105.371 128.956 105.318 129.143C105.371 129.188 105.386 129.218 105.408 129.225C105.58 129.292 105.751 129.352 105.923 129.419C107.782 130.128 109.29 131.301 110.343 132.973C112.254 136.004 112.747 139.259 111.515 142.656C111.149 143.664 111.089 144.642 111.104 145.672C111.134 148.838 111.284 151.996 111.396 155.161C111.47 157.274 111.746 159.357 112.157 161.432C112.792 164.65 114.628 166.972 117.398 168.607C118.951 169.518 120.608 170.197 122.348 170.66C125.543 171.504 128.798 172.004 132.083 172.295C135.555 172.609 139.034 172.743 142.505 172.392C147.246 171.914 150.695 169.578 152.786 165.27C153.51 163.769 154.115 162.224 154.593 160.634C156.145 155.423 157.213 150.092 158.408 144.709ZM176.624 139.856C176.654 139.117 176.564 138.378 176.43 137.654C176.116 135.914 175.265 134.518 173.593 133.831C171.868 133.122 168.837 133.167 167.045 135.243C166.403 135.989 165.851 136.78 165.508 137.706C164.813 139.535 164.574 141.447 164.671 143.373C164.821 146.352 166.418 148.323 169.875 148.994C171.488 149.308 173.07 149.002 174.661 148.778C174.982 148.733 175.086 148.517 175.153 148.24C175.31 147.628 175.474 147.016 175.616 146.404C176.139 144.246 176.564 142.081 176.624 139.856ZM110.634 139.199C110.627 137.423 110.209 135.862 109.41 134.399C108.245 132.286 106.498 130.98 104.116 130.509C103.564 130.397 103.176 130.532 102.765 130.912C100.286 133.219 99.6444 136.094 100.257 139.296C100.66 141.409 101.742 143.164 103.489 144.478C104.251 145.045 105.117 145.381 106.043 145.456C107.648 145.59 108.753 144.754 109.514 143.418C110.261 142.074 110.574 140.61 110.634 139.199ZM128.231 144.112C128.134 144.037 128.029 144.06 127.932 144.089C124.319 145.172 120.922 146.702 117.883 148.965C117.331 149.375 116.838 149.846 116.405 150.383C116.204 150.629 116.032 150.898 115.92 151.197C115.763 151.645 115.882 151.846 116.353 151.906C116.562 151.929 116.771 151.906 116.98 151.876C117.667 151.787 118.309 151.533 118.936 151.257C122.49 149.674 125.491 147.359 128.052 144.44C128.126 144.343 128.223 144.254 128.231 144.112ZM162.297 203.248C162.581 202.681 162.611 202.106 162.693 201.539C163.066 198.978 163.171 196.402 163.275 193.819C163.328 192.58 163.335 191.34 163.342 190.109C163.342 189.69 163.335 189.257 162.977 188.944C162.439 188.466 161.834 188.1 161.118 187.958C160.58 187.854 160.528 187.891 160.595 188.451C160.968 191.803 161.252 195.163 161.483 198.522C161.566 199.754 161.663 200.994 161.909 202.211C161.976 202.554 161.999 202.935 162.297 203.248Z" fill="#303030"/>
<path d="M66.1679 135.937C66.0037 135.25 65.5408 134.802 64.9659 134.459C64.4657 134.152 63.8983 134.026 63.3235 133.914C62.002 133.66 60.6582 133.578 59.3143 133.473C56.3728 133.242 53.4238 133.048 50.4823 132.809C49.2729 132.712 48.0709 132.547 46.9062 132.182C46.0103 131.905 45.1965 131.487 44.4948 130.868C43.345 129.86 42.9867 128.635 43.457 127.157C44.002 125.425 45.1443 124.201 46.6449 123.275C48.8697 121.894 51.311 121.102 53.8718 120.602C57.7017 119.856 61.569 119.736 65.4512 119.751C71.3641 119.773 77.1799 120.505 82.8913 122.036C84.2948 122.409 85.676 122.842 86.9601 123.544C87.5648 123.872 88.1472 124.238 88.6623 124.693C90.7751 126.545 91.0812 129.501 89.3566 131.734C88.5354 132.794 87.4753 133.57 86.3181 134.227C84.6009 135.198 82.7196 135.728 80.8083 136.116C76.9037 136.915 72.9468 137.348 68.9601 137.527C68.878 137.527 68.8033 137.534 68.7212 137.534C68.3927 137.512 68.2434 137.617 68.3031 137.99C68.3703 138.43 68.3703 138.886 68.4151 139.326C68.6316 141.461 68.445 143.597 68.3106 145.724C68.1613 147.987 67.9896 150.249 67.8701 152.511C67.6013 157.7 67.6312 162.896 67.5864 168.092C67.5864 168.331 67.5939 168.57 67.5566 168.801C67.4819 169.212 67.1459 169.481 66.7801 169.451C66.4292 169.428 66.1828 169.182 66.1157 168.779C66.0933 168.652 66.0933 168.517 66.0933 168.383C66.153 163.269 66.0709 158.148 66.3322 153.033C66.474 150.294 66.7055 147.561 66.8697 144.821C66.9966 142.581 67.0787 140.342 66.8025 138.102C66.7577 137.766 66.7278 137.505 66.2724 137.49C63.9804 137.445 61.6885 137.415 59.4114 137.841C57.0522 138.289 55.1708 139.52 53.6403 141.327C51.9083 143.38 50.6466 145.724 49.4819 148.121C47.496 152.197 45.8834 156.445 44.002 160.566C43.1435 162.463 42.3297 164.381 41.4935 166.285C41.2994 166.733 41.0008 166.897 40.6424 166.778C40.3065 166.666 40.1198 166.293 40.2243 165.86C40.299 165.554 40.4334 165.262 40.5454 164.971C42.1356 160.895 44.0095 156.938 45.6893 152.892C46.7942 150.234 47.9887 147.621 49.3475 145.09C50.1613 143.574 51.0796 142.133 52.1397 140.782C54.3944 137.885 57.3583 136.355 61.0091 136.079C62.5097 135.967 64.0103 135.892 65.5109 135.952C65.72 136.011 65.929 136.049 66.1679 135.937ZM64.9659 121.267C59.9639 121.259 57.3135 121.476 53.603 122.207C51.4155 122.64 49.34 123.387 47.4288 124.559C46.3537 125.223 45.4653 126.067 45.0024 127.284C44.5172 128.546 44.7561 129.3 45.8834 130.061C46.7569 130.651 47.7498 130.912 48.7652 131.077C51.0348 131.442 53.3268 131.51 55.6188 131.704C58.0601 131.905 60.5163 132.002 62.9502 132.323C65.1526 132.615 66.9668 133.421 67.7656 135.698C67.8626 135.967 68.0568 136.049 68.3181 136.034C68.5794 136.019 68.8481 136.019 69.1094 136.011C71.7225 135.944 74.3131 135.623 76.9037 135.28C79.0763 134.989 81.2264 134.593 83.3094 133.906C85.0116 133.346 86.5644 132.532 87.8187 131.226C88.8938 130.099 89.2521 128.785 88.722 127.291C88.3861 126.351 87.6694 125.731 86.8481 125.223C85.6536 124.477 84.3396 124.006 82.9883 123.633C76.9784 121.976 70.849 121.222 64.9659 121.267Z" fill="#303030"/>
<path d="M90.2747 165.673C90.2897 166.128 90.0956 166.427 89.7671 166.524C89.4236 166.621 89.1026 166.487 88.9085 166.128C88.8264 165.972 88.7741 165.785 88.7293 165.606C87.0047 158.999 85.0263 152.466 83.3764 145.836C82.809 143.559 82.264 141.275 81.719 138.998C81.6966 138.893 81.6667 138.789 81.6592 138.684C81.6294 138.259 81.8085 137.96 82.1445 137.893C82.5103 137.818 82.7642 137.997 82.906 138.311C83.0031 138.527 83.0553 138.759 83.1151 138.99C84.6082 144.455 85.9446 149.965 87.5049 155.415C88.4158 158.61 89.2594 161.821 90.1329 165.023C90.1851 165.262 90.2299 165.494 90.2747 165.673Z" fill="#303030"/>
<path d="M162.387 37.1496C162.379 37.2392 162.364 37.3213 162.379 37.3885C162.775 39.255 162.835 41.1513 162.939 43.0476C163.074 45.5188 162.82 47.9451 162.424 50.364C162.103 52.3201 161.334 54.1044 159.938 55.5677C159.811 55.7021 159.699 55.8589 159.55 55.9634C158.281 56.8518 156.944 57.5163 155.354 57.6357C152.905 57.8149 150.598 57.3446 148.336 56.4188C145.566 55.2765 143.006 53.7759 140.572 52.0438C139.758 51.469 139.049 50.7523 138.272 50.0803C137.817 50.2969 137.436 50.6253 137.055 50.9538C136.018 51.8497 134.883 52.6187 133.785 53.4325C132.516 54.3732 131.269 55.3363 129.933 56.2023C128.963 56.8294 127.97 57.4341 127.051 58.1434C126.842 58.3076 126.611 58.4271 126.327 58.4271C125.752 58.4271 125.469 57.9791 125.707 57.4565C125.827 57.1952 126.043 57.0609 126.275 56.9265C127.805 55.9932 129.246 54.9256 130.642 53.8132C131.381 53.2234 132.195 52.7307 132.957 52.1633C134.241 51.1927 135.45 50.1326 136.794 49.2442C136.899 49.1695 136.996 49.0725 137.085 48.9829C137.212 48.856 137.242 48.744 137.1 48.5797C136.503 47.863 136.152 47.0119 135.816 46.1459C135.286 44.7871 135.368 43.4507 135.876 42.1368C136.286 41.0692 136.921 40.1359 137.727 39.3147C138.989 38.0156 140.482 37.0302 142.065 36.1865C143.364 35.4922 144.723 34.9173 146.067 34.3126C147.396 33.7154 148.792 33.3421 150.158 32.8792C150.897 32.6254 151.703 32.5507 152.502 32.7448C153.615 33.021 154.092 33.8423 153.779 34.9472C153.473 36.0223 152.741 36.8361 152.069 37.6722C151.584 38.2919 151.009 38.8443 150.449 39.3893C148.934 40.8601 147.418 42.3159 145.82 43.6971C144.028 45.2425 142.222 46.7805 140.415 48.3184C140.139 48.5573 139.825 48.7589 139.512 48.9978C140.646 50.267 141.983 51.2375 143.401 52.0886C144.394 52.6859 145.38 53.2906 146.418 53.8282C148.067 54.6718 149.77 55.3661 151.561 55.8439C153.196 56.2769 154.839 56.3292 156.481 55.8738C158.154 55.4109 159.244 54.2985 159.998 52.7979C160.67 51.4615 160.983 50.0132 161.148 48.5424C161.446 45.892 161.566 43.2417 161.23 40.5764C161.103 39.5835 161.08 38.5756 160.864 37.5976C160.767 37.1347 160.64 36.6793 160.543 36.2164C160.498 35.9775 160.341 35.858 160.155 35.746C158.997 35.0592 157.915 34.2678 156.825 33.4765C156.011 32.8792 155.272 32.1923 154.645 31.4234C153.286 29.7361 153.413 27.8174 155.085 26.2794C156.646 24.8385 158.467 24.2487 160.55 24.8908C162.223 25.4059 163.417 26.4512 163.798 28.228C163.985 29.1164 163.858 30.0049 163.604 30.8858C163.275 32.043 162.685 33.0658 162.103 34.0961C161.707 34.7979 161.7 34.7979 162.409 35.2384C164.313 36.418 166.321 37.4258 168.292 38.4785C170.062 39.4192 171.853 40.3151 173.6 41.2931C176.915 43.1372 180.208 45.0335 183.515 46.885C186.688 48.6618 189.883 50.3939 193.056 52.1782C194.639 53.0741 196.192 54.0223 197.737 54.9704C201.709 57.4192 205.756 59.7485 209.921 61.8539C212.885 63.3545 215.939 64.6685 219.127 65.6241C220.62 66.072 220.583 66.2064 220.672 64.5117C220.754 62.9514 221.165 61.4507 222.173 60.2562C223.547 58.6212 225.839 58.4271 227.302 60.4205C229.504 63.4142 227.264 66.6618 224.89 67.3562C224.092 67.5876 223.308 67.7444 222.486 67.7369C222.106 67.7295 221.971 67.8713 221.986 68.2446C222.038 69.6407 222.068 71.0368 222.106 72.4329C222.113 72.6195 222.143 72.7987 222.143 72.9854C222.165 75.9343 222.165 78.8908 222.218 81.8398C222.285 85.5055 222.292 89.1712 222.337 92.8294C222.352 94.121 222.345 95.4126 222.374 96.6967C222.419 98.802 222.382 100.915 222.509 103.02C222.606 104.707 222.539 106.395 222.658 108.075C222.785 109.762 222.703 111.449 222.815 113.129C222.919 114.637 222.822 116.13 222.815 117.631C222.807 119.766 222.68 121.901 222.673 124.029C222.673 125.925 222.509 127.822 222.524 129.71C222.546 131.637 222.367 133.555 222.367 135.474C222.367 136.9 222.21 138.311 222.18 139.729C222.106 142.551 221.814 145.359 221.59 148.166C221.426 150.264 221.045 152.347 220.605 154.415C220.351 155.609 220.09 155.452 221.426 155.818C223.673 156.43 225.839 157.252 227.809 158.513C228.653 159.051 229.459 159.648 230.251 160.26C231.46 161.201 232.64 162.172 233.722 163.254C234.581 164.105 235.395 165.023 235.85 166.173C236.186 167.024 235.97 167.368 235.081 167.599C233.73 167.95 232.349 168.137 230.967 168.338C227.279 168.868 223.569 169.033 219.866 169.301C219.291 169.346 218.709 169.354 218.126 169.369C215.834 169.436 213.542 169.54 211.25 169.593C209.481 169.63 207.727 169.488 205.965 169.451C203.128 169.391 200.365 168.809 197.573 168.45C197.155 168.398 196.744 168.286 196.364 168.092C196.02 167.92 195.886 167.599 195.975 167.233C196.065 166.882 196.304 166.696 196.662 166.688C196.871 166.688 197.088 166.711 197.289 166.756C200.612 167.539 204.001 167.853 207.398 168.002C211.086 168.159 214.774 168.01 218.462 167.778C218.992 167.749 219.515 167.719 220.045 167.711C222.18 167.696 224.308 167.48 226.428 167.278C228.683 167.062 230.953 166.965 233.185 166.532C233.483 166.472 233.79 166.405 234.155 166.323C233.819 165.71 233.461 165.195 233.021 164.747C230.699 162.336 228.093 160.305 225.099 158.79C223.636 158.05 222.091 157.528 220.508 157.11C220.038 156.99 219.926 157.17 219.784 157.535C219.239 158.939 218.604 160.29 217.693 161.507C216.648 162.888 215.409 164.038 213.968 164.994C212.691 165.837 211.258 166.173 209.809 166.36C208.324 166.554 206.883 166.143 205.681 165.285C204.509 164.441 203.882 163.239 204.233 161.709C204.419 160.902 204.718 160.148 205.226 159.491C206.024 158.461 206.95 157.61 208.107 156.953C210.758 155.437 213.617 154.922 216.618 154.997C217.171 155.012 217.723 155.101 218.268 155.154C218.88 155.213 218.888 155.213 219.045 154.586C219.373 153.28 219.575 151.958 219.724 150.615C219.911 148.86 220.232 147.113 220.314 145.351C220.433 142.828 220.739 140.312 220.747 137.781C220.747 136.467 220.948 135.145 220.926 133.831C220.896 131.622 221.15 129.412 221.06 127.202C221.038 126.545 221.128 125.888 221.15 125.223C221.217 122.693 221.299 120.162 221.329 117.631C221.359 115.705 221.404 113.778 221.292 111.86C221.202 110.172 221.277 108.485 221.143 106.805C221.016 105.17 221.083 103.535 221.001 101.908C220.822 98.4287 220.881 94.9497 220.822 91.4781C220.792 89.7386 220.874 87.999 220.807 86.2595C220.672 82.7805 220.747 79.3014 220.65 75.8224C220.575 73.2392 220.657 70.656 220.56 68.0803C220.545 67.61 220.396 67.4457 219.963 67.3562C216.611 66.6469 213.513 65.2583 210.429 63.8099C207.323 62.3466 204.345 60.6594 201.388 58.9273C198.521 57.2475 195.699 55.5005 192.825 53.8356C190.406 52.4395 187.942 51.1181 185.501 49.7593C183.522 48.6544 181.544 47.5494 179.573 46.4296C175.795 44.2794 172.018 42.1218 168.15 40.1285C166.366 39.2102 164.612 38.2471 162.842 37.3213C162.693 37.2392 162.573 37.1272 162.387 37.1496ZM138.496 47.8257C138.646 47.7212 138.743 47.6764 138.817 47.6092C140.146 46.452 141.52 45.347 142.871 44.2048C144.379 42.9281 145.828 41.5768 147.306 40.2778C148.478 39.2475 149.583 38.1575 150.606 36.9928C151.181 36.3433 151.733 35.6639 152.129 34.8875C152.39 34.3798 152.286 34.2006 151.726 34.2305C151.039 34.2678 150.359 34.3873 149.71 34.6038C147.687 35.2832 145.731 36.1044 143.797 37.0227C141.819 37.9559 140.042 39.1579 138.526 40.7257C137.72 41.5694 137.13 42.5474 137.063 43.7942C136.996 45.3172 137.474 46.6237 138.496 47.8257ZM218.365 156.789C216.267 156.423 214.304 156.415 212.318 156.923C210.825 157.304 209.376 157.782 208.145 158.715C207.092 159.514 206.144 160.432 205.793 161.798C205.517 162.881 205.95 163.799 206.965 164.247C209.705 165.471 212.064 164.538 214.244 162.896C215.252 162.134 216.051 161.134 216.76 160.074C217.44 159.058 217.895 157.953 218.365 156.789ZM162.394 29.3703C162.312 28.019 161.745 26.8991 160.438 26.3989C159.341 25.9808 158.325 26.1749 157.295 26.5631C156.414 26.8991 155.832 27.5486 155.429 28.3923C155.182 28.9149 155.197 29.4225 155.503 29.9003C155.802 30.3632 156.108 30.8186 156.511 31.2069C157.579 32.2297 158.788 33.0658 160.05 33.8348C160.386 34.0364 160.58 33.9767 160.744 33.6631C161.237 32.7373 161.812 31.8489 162.096 30.8186C162.238 30.3408 162.372 29.8555 162.394 29.3703ZM222.904 66.1094C223.084 66.087 223.375 66.0571 223.659 66.0273C224.898 65.9003 225.749 65.206 226.324 64.1533C227.055 62.8244 226.488 61.1894 225.152 60.6146C224.808 60.4652 224.502 60.4727 224.159 60.6071C223.487 60.8759 223.158 61.4433 222.882 62.048C222.397 63.1156 222.195 64.2579 222.113 65.4225C222.068 66.0944 222.106 66.1243 222.904 66.1094Z" fill="#303030"/>
<path d="M138.063 66.7664C138.041 66.3558 138.16 66.1467 138.257 65.9377C139.706 62.8991 141.184 59.8755 142.819 56.9339C142.894 56.7996 142.961 56.6502 143.05 56.5233C143.259 56.2247 143.543 56.1276 143.879 56.277C144.185 56.4113 144.394 56.8145 144.275 57.1281C144.073 57.6432 143.834 58.1434 143.58 58.6287C142.296 61.0774 141.154 63.586 139.96 66.0795C139.788 66.4304 139.653 66.8186 139.355 67.0874C139.116 67.3114 138.832 67.4383 138.489 67.3039C138.16 67.177 138.078 66.9082 138.063 66.7664Z" fill="#303030"/>
<path d="M150.427 68.9315C150.651 65.8854 150.875 62.9663 151.479 60.0994C151.509 59.9725 151.517 59.8381 151.562 59.7112C151.711 59.2707 152.017 59.0617 152.375 59.1364C152.741 59.2185 152.92 59.5246 152.861 59.9949C152.778 60.5922 152.629 61.1895 152.592 61.7942C152.442 64.1608 152.069 66.5051 151.965 68.8792C151.957 69.036 151.965 69.2002 151.92 69.3496C151.808 69.7378 151.509 69.8871 151.136 69.8946C150.785 69.902 150.494 69.6407 150.427 69.2674C150.404 69.1181 150.427 68.9613 150.427 68.9315Z" fill="#303030"/>
<path d="M102.063 106.813C101.205 105.648 100.219 104.625 99.0471 103.797C95.7846 101.49 92.2607 99.7651 88.2889 99.026C85.3773 98.4885 82.4806 98.3018 79.5913 99.1231C79.4121 99.1753 79.2329 99.2276 79.0538 99.235C78.7402 99.2425 78.4789 99.1007 78.3669 98.802C78.2549 98.5034 78.3296 98.2272 78.561 98.0032C78.7402 97.8315 78.9567 97.7494 79.1882 97.6896C81.1666 97.1596 83.1674 96.9281 85.2205 97.0924C90.566 97.5104 95.374 99.347 99.734 102.438C101.302 103.55 102.564 104.954 103.728 106.469C103.81 106.574 103.885 106.686 103.945 106.805C104.311 107.53 104.042 108.134 103.25 108.291C102.556 108.425 101.847 108.515 101.138 108.597C98.1363 108.941 95.1351 108.903 92.1338 108.627C89.3565 108.373 86.6614 107.761 84.1081 106.649C80.7485 105.185 77.9115 103.065 75.8584 99.9742C75.6867 99.7129 75.5225 99.5486 75.1716 99.571C73.7157 99.6606 72.3047 99.9667 70.9086 100.385C70.5726 100.489 70.5726 100.736 70.5502 100.997C70.4159 102.333 70.274 103.67 70.1172 105.006C70.05 105.611 69.953 106.208 69.841 106.805C69.7738 107.171 69.8634 107.32 70.2665 107.35C71.8717 107.462 73.4544 107.739 75.0222 108.119C75.6643 108.276 76.2914 108.47 76.8962 108.739C79.0314 109.702 80.1886 111.3 80.1438 113.689C80.1214 115.145 79.8825 116.578 79.6137 118.004C79.1658 120.386 78.7402 122.775 78.0235 125.097C77.7697 125.903 77.486 126.694 77.0455 127.426C76.2914 128.658 75.2089 129.434 73.7531 129.457C70.3263 129.509 66.892 129.546 63.4876 129.009C62.8605 128.912 62.2558 128.74 61.666 128.486C60.4864 127.986 59.7622 127.112 59.4934 125.858C59.2396 124.641 59.1201 123.409 58.9484 122.185C58.5079 119.027 58.0973 115.861 57.9032 112.673C57.8808 112.308 57.8584 111.934 57.8808 111.569C57.9107 111.091 58.157 110.822 58.5303 110.829C58.8962 110.829 59.15 111.083 59.1873 111.569C59.2993 113.069 59.4636 114.562 59.6577 116.055C60.0608 119.116 60.4341 122.177 60.8895 125.223C61.0538 126.328 61.651 126.978 62.6888 127.277C63.5548 127.53 64.4358 127.68 65.3317 127.754C67.8551 127.978 70.3935 127.934 72.9244 127.986C73.0289 127.986 73.1334 127.978 73.2379 127.986C74.5892 128.016 75.4777 127.359 76.0152 126.157C76.6423 124.753 77.0081 123.267 77.3292 121.767C77.8144 119.497 78.2997 117.228 78.5536 114.921C78.5984 114.525 78.6357 114.129 78.6357 113.741C78.6506 111.964 77.8891 110.807 76.2541 110.098C75.2537 109.665 74.1935 109.471 73.1334 109.247C72.0957 109.03 71.043 108.955 69.9978 108.814C69.5722 108.754 69.4528 108.933 69.3706 109.299C69.2661 109.814 69.1243 110.322 68.9675 110.829C68.7585 111.486 68.4225 112.084 67.9596 112.606C67.3101 113.353 66.5113 113.816 65.5034 113.898C64.5702 113.98 63.6519 113.905 62.7709 113.622C61.9497 113.353 61.2553 112.882 60.8447 112.084C60.2773 110.986 60.5088 109.807 61.4569 109.015C62.0318 108.537 62.6962 108.216 63.398 107.985C64.8091 107.522 66.2425 107.194 67.7356 107.201C68.0716 107.201 68.2732 107.134 68.3329 106.753C68.6017 104.984 68.848 103.207 68.9824 101.415C68.9899 101.311 68.975 101.206 68.96 101.079C68.6166 101.012 68.3404 101.191 68.0492 101.281C65.9588 101.938 63.846 102.475 61.6436 102.647C59.5979 102.804 57.5896 102.587 55.5814 102.259C52.6249 101.766 49.7879 100.915 47.0928 99.5785C44.7709 98.4287 42.7701 96.8609 40.9708 95.0094C39.1118 93.0982 37.4171 91.0376 35.8941 88.8501C35.6104 88.4395 35.3267 88.0214 35.1699 87.5362C34.8862 86.6701 35.2744 86.043 36.1853 85.9833C40.0077 85.7518 43.8302 85.6399 47.6452 86.0579C50.4374 86.364 53.155 86.9016 55.768 87.9916C59.9115 89.7236 63.2562 92.374 65.6303 96.2039C65.6975 96.3159 65.7796 96.4204 65.8393 96.5399C66.0334 96.9281 66.3022 97.0476 66.7427 96.9356C67.3549 96.7863 67.982 96.6743 68.6091 96.5922C69.0422 96.5399 69.1765 96.3383 69.1616 95.9128C69.0944 94.3375 68.7585 92.8369 68.0044 91.4333C67.2056 89.9625 66.1529 88.6784 65.0928 87.4018C62.8008 84.632 60.7551 81.6979 58.8962 78.622C56.7908 75.128 55.5291 71.3802 55.0438 67.3338C54.7228 64.6834 54.454 62.0405 54.4391 59.3678C54.4391 59.1065 54.4167 58.8377 54.5063 58.5839C54.7079 58.0165 55.2454 57.8 55.7755 58.0837C55.9098 58.1583 56.0368 58.2628 56.1562 58.3599C59.9414 61.5478 62.7858 65.4151 64.6224 70.0214C65.6975 72.7091 66.347 75.4939 66.7726 78.3458C66.8174 78.6594 66.8323 78.9729 67.0189 79.3387C67.2578 78.301 67.4669 77.3304 67.7058 76.3674C69.0123 71.1562 71.2072 66.3781 74.6863 62.2346C76.3512 60.2562 78.3072 58.6287 80.5619 57.3595C80.6962 57.2848 80.8381 57.2027 80.9799 57.1355C81.719 56.807 82.2864 57.0235 82.5552 57.785C82.8091 58.4868 82.8762 59.2259 82.9882 59.9501C83.6975 64.6983 83.033 69.2525 81.0023 73.605C80.0019 75.7552 78.6506 77.6589 77.0007 79.3611C75.8659 80.5407 74.649 81.6307 73.4395 82.7357C72.3346 83.751 71.2147 84.7589 70.2815 85.9534C70.0874 86.1998 69.9231 86.476 69.729 86.7299C69.5498 86.9762 69.5648 87.1853 69.729 87.4466C70.4607 88.6038 71.1699 89.7759 71.8941 90.948C71.9463 91.0302 71.9837 91.1421 72.1405 91.1645C72.357 91.0824 72.4242 90.836 72.5436 90.6419C74.6788 87.1629 77.4113 84.2214 80.5768 81.6606C83.8692 78.9953 87.6693 77.4424 91.7904 76.6287C94.3512 76.121 96.9492 75.8522 99.5399 75.5387C101.324 75.3221 103.086 75.0161 104.848 74.6876C105.027 74.6502 105.214 74.598 105.393 74.598C106.162 74.598 106.535 75.2251 106.162 75.897C106.02 76.1508 105.834 76.3748 105.662 76.6063C104.945 77.5843 104.303 78.622 103.698 79.6672C99.9505 86.155 94.4557 90.5225 87.4677 93.1056C82.9061 94.7929 78.1952 95.9352 73.4768 97.055C72.7079 97.2342 71.9314 97.3985 71.1624 97.5776C70.722 97.6822 70.4457 98.272 70.6398 98.6751C70.7294 98.8692 70.9086 98.802 71.0579 98.7722C71.5432 98.6527 72.0285 98.5183 72.5137 98.4138C73.4918 98.1973 74.4922 98.1152 75.4926 98.048C76.0749 98.0032 76.5005 98.2048 76.8066 98.7274C78.0757 100.93 79.9198 102.565 82.0401 103.909C84.7875 105.656 87.8261 106.574 91.0139 106.999C94.5079 107.462 98.0094 107.5 101.503 107.029C101.697 106.992 101.869 107.022 102.063 106.813ZM103.818 76.4943C103.609 76.3898 103.4 76.4644 103.206 76.5017C101.802 76.763 100.391 76.9198 98.9799 77.1065C96.5013 77.435 94.0003 77.6739 91.5515 78.2039C87.9754 78.9804 84.6606 80.3541 81.7713 82.6386C78.576 85.1621 75.8509 88.111 73.7381 91.605C73.5216 91.9634 73.3126 92.3367 73.0737 92.6801C72.4839 93.5387 71.7672 93.5312 71.2147 92.6577C71.0878 92.4561 70.9758 92.2471 70.8489 92.0455C70.0202 90.7017 69.2139 89.3354 68.3404 88.014C67.8999 87.3495 67.8999 86.812 68.3254 86.1401C69.1765 84.8112 70.2292 83.6838 71.364 82.6162C72.7079 81.347 74.0965 80.1301 75.403 78.8311C80.4125 73.8365 82.3312 67.7668 81.5847 60.7937C81.51 60.1218 81.4876 59.435 81.2412 58.7854C80.9351 58.7854 80.7336 58.9796 80.5171 59.1139C78.8447 60.1517 77.3665 61.4134 76.0749 62.8991C72.7228 66.7664 70.6174 71.2608 69.296 76.1658C68.6465 78.5623 68.2956 81.0185 67.885 83.4599C67.8402 83.751 67.7804 84.0347 67.6461 84.296C67.4893 84.6021 67.2354 84.7738 66.8771 84.744C66.556 84.7216 66.3395 84.5349 66.235 84.2363C66.1828 84.087 66.1454 83.9302 66.1156 83.7809C65.9588 82.8477 65.7871 81.9144 65.6452 80.9737C65.2943 78.6519 64.9957 76.3226 64.376 74.053C62.965 68.909 60.5237 64.3698 56.522 60.7564C56.3802 60.6295 56.2831 60.3831 55.992 60.4802C55.992 60.846 55.977 61.2118 55.992 61.5776C56.1114 64.1085 56.4175 66.6245 56.8431 69.1181C57.2537 71.5295 58.0003 73.8215 59.1649 75.9791C60.3669 78.2114 61.6884 80.369 63.1517 82.437C64.6373 84.5275 66.3171 86.4536 67.87 88.4843C69.1691 90.1791 70.177 92.0156 70.4905 94.1658C70.5577 94.6063 70.5801 95.0542 70.6324 95.5022C70.707 96.1218 70.7145 96.1293 71.2968 96.0024C71.8866 95.8754 72.4764 95.7336 73.0662 95.5917C77.7846 94.4719 82.503 93.3371 87.0571 91.6423C92.313 89.6788 96.7925 86.6403 100.242 82.1683C101.578 80.4287 102.623 78.4951 103.788 76.6436C103.833 76.6137 103.81 76.554 103.818 76.4943ZM36.9094 87.4018C36.9542 87.7751 37.1259 87.9468 37.2603 88.1334C38.6564 90.1193 40.2093 91.9858 41.8742 93.7477C44.2707 96.2861 47.1002 98.145 50.3852 99.3321C52.6548 100.153 54.9841 100.668 57.3657 100.975C59.5457 101.258 61.7257 101.251 63.8982 100.81C65.4511 100.497 66.9592 100.034 68.4598 99.5486C69.1392 99.3321 69.1392 99.3321 69.1541 98.6229C69.1541 98.4287 69.2363 98.2048 69.0347 98.0331C68.415 98.1376 67.7954 98.2421 67.1757 98.3615C65.6154 98.6452 65.3914 98.5482 64.5179 97.1969C64.4208 97.0401 64.3238 96.8833 64.2193 96.734C63.3458 95.4424 62.4051 94.2106 61.2479 93.1504C58.6498 90.7539 55.5739 89.2458 52.1994 88.3425C49.2578 87.5586 46.2267 87.3495 43.1956 87.2525C41.1127 87.1778 39.0372 87.357 36.9094 87.4018ZM64.8464 112.39C66.0932 112.539 66.8621 111.837 67.3848 110.755C67.6013 110.299 67.7356 109.814 67.8402 109.329C67.9671 108.746 67.9148 108.679 67.3176 108.702C65.8543 108.761 64.4582 109.105 63.1218 109.702C62.9053 109.799 62.7037 109.926 62.5171 110.068C61.9198 110.531 61.8825 111.158 62.4125 111.695C62.6813 111.964 63.0098 112.121 63.3682 112.226C63.8385 112.352 64.3088 112.412 64.8464 112.39Z" fill="#303030"/>
<rect x="122" y="218" width="29" height="26" fill="white"/>
<path fill-rule="evenodd" clip-rule="evenodd" d="M115.167 230.001C115.167 218.495 124.495 209.168 136.001 209.168C147.507 209.168 156.834 218.495 156.834 230.001C156.834 241.505 147.507 250.834 136.001 250.834C124.495 250.834 115.167 241.505 115.167 230.001ZM135.333 238.111L146.499 224.612C147.318 223.624 147.11 222.214 146.037 221.46C144.959 220.706 143.427 220.9 142.61 221.887L133.361 233.067L129.369 228.374C128.538 227.393 126.998 227.222 125.937 227.989C124.874 228.754 124.688 230.169 125.519 231.146L131.464 238.136C131.928 238.68 132.637 239 133.388 239H133.405C134.163 238.995 134.874 238.667 135.333 238.111Z" fill="#FF7A00"/>
</svg>
